<svg id="svg" version="1.1" xmlns="http://www.w3.org/2000/svg" xmlns:xlink="http://www.w3.org/1999/xlink" width="400" height="469.85915492957747" viewBox="0, 0, 400,469.85915492957747"><g id="svgg"><path id="path0" d="M193.298 0.266 C 193.021 0.377,192.914 0.661,193.059 0.896 C 193.212 1.143,193.136 1.207,192.877 1.048 C 192.312 0.698,185.502 4.558,185.903 5.000 C 186.066 5.181,185.979 5.201,185.708 5.046 C 185.047 4.666,183.506 5.525,183.851 6.082 C 184.015 6.348,183.940 6.410,183.662 6.238 C 183.079 5.878,179.176 8.038,179.491 8.547 C 179.619 8.754,179.534 8.806,179.301 8.663 C 178.749 8.321,175.507 10.164,175.899 10.597 C 176.065 10.779,175.979 10.801,175.708 10.646 C 174.799 10.123,173.471 11.153,174.055 11.928 C 174.483 12.496,174.475 12.523,174.001 12.100 C 173.296 11.472,172.658 11.447,173.038 12.062 C 173.213 12.345,173.148 12.415,172.870 12.243 C 171.996 11.703,170.677 12.765,171.274 13.528 C 171.743 14.127,171.726 14.142,171.119 13.666 C 170.357 13.070,165.289 15.524,165.897 16.195 C 166.064 16.378,165.986 16.405,165.724 16.255 C 165.130 15.915,162.693 17.349,163.101 17.799 C 163.266 17.980,163.181 18.002,162.913 17.849 C 162.308 17.501,158.288 19.743,158.701 20.198 C 158.865 20.380,158.775 20.399,158.500 20.241 C 157.665 19.760,157.093 20.384,157.681 21.136 C 158.137 21.720,158.121 21.738,157.545 21.288 C 156.852 20.747,154.620 21.385,155.008 22.013 C 155.109 22.176,154.878 22.285,154.496 22.255 C 154.113 22.225,153.843 22.419,153.895 22.686 C 153.954 22.985,153.737 23.074,153.330 22.918 C 152.851 22.734,152.759 22.810,152.996 23.194 C 153.211 23.541,153.169 23.628,152.875 23.446 C 152.306 23.095,148.297 25.353,148.701 25.798 C 148.865 25.980,148.793 26.010,148.539 25.865 C 147.950 25.528,144.698 27.354,145.099 27.797 C 145.265 27.979,145.186 28.005,144.924 27.855 C 144.330 27.515,141.893 28.949,142.301 29.399 C 142.466 29.580,142.393 29.610,142.139 29.465 C 141.550 29.128,138.298 30.954,138.699 31.397 C 138.865 31.579,138.775 31.599,138.501 31.441 C 137.888 31.088,134.679 32.933,135.099 33.396 C 135.264 33.579,135.175 33.599,134.901 33.441 C 134.297 33.094,132.681 34.135,133.103 34.600 C 133.266 34.781,133.191 34.809,132.936 34.663 C 132.291 34.294,131.148 34.792,131.464 35.304 C 131.614 35.546,131.532 35.605,131.270 35.443 C 130.648 35.059,129.113 35.935,129.451 36.482 C 129.615 36.748,129.540 36.810,129.262 36.638 C 128.679 36.278,124.776 38.438,125.091 38.947 C 125.219 39.154,125.116 39.195,124.862 39.038 C 124.067 38.547,123.502 39.196,124.081 39.936 C 124.536 40.519,124.520 40.538,123.951 40.093 C 123.221 39.523,121.863 39.854,122.264 40.504 C 122.414 40.746,122.332 40.805,122.070 40.643 C 121.206 40.109,119.879 41.164,120.455 41.928 C 120.883 42.496,120.875 42.523,120.401 42.100 C 119.733 41.505,119.050 41.434,119.397 41.995 C 119.542 42.230,119.363 42.284,118.955 42.127 C 118.453 41.935,118.356 42.006,118.596 42.394 C 118.812 42.743,118.769 42.828,118.470 42.643 C 117.596 42.103,116.277 43.165,116.874 43.928 C 117.343 44.527,117.326 44.542,116.719 44.066 C 115.957 43.470,110.889 45.924,111.497 46.595 C 111.664 46.778,111.575 46.799,111.300 46.641 C 110.465 46.160,109.893 46.784,110.481 47.536 C 110.936 48.119,110.920 48.138,110.351 47.693 C 109.621 47.123,108.263 47.454,108.664 48.104 C 108.814 48.346,108.732 48.405,108.470 48.243 C 107.596 47.703,106.277 48.765,106.874 49.528 C 107.338 50.121,107.323 50.140,106.745 49.688 C 105.983 49.093,103.839 49.815,104.274 50.520 C 104.416 50.749,104.324 50.800,104.062 50.638 C 103.267 50.147,102.702 50.796,103.281 51.536 C 103.742 52.126,103.724 52.141,103.117 51.665 C 102.377 51.086,98.998 52.550,99.437 53.260 C 99.550 53.442,99.333 53.472,98.955 53.327 C 98.453 53.135,98.356 53.206,98.596 53.594 C 98.811 53.941,98.769 54.028,98.475 53.846 C 97.906 53.495,93.897 55.753,94.301 56.198 C 94.465 56.380,94.375 56.399,94.100 56.241 C 93.265 55.760,92.693 56.384,93.281 57.136 C 93.736 57.719,93.720 57.738,93.151 57.293 C 92.421 56.723,91.063 57.054,91.464 57.704 C 91.607 57.935,91.534 58.006,91.301 57.863 C 90.749 57.521,87.507 59.364,87.899 59.797 C 88.065 59.979,87.993 60.010,87.739 59.865 C 87.150 59.528,83.898 61.354,84.299 61.797 C 84.465 61.979,84.375 61.999,84.100 61.841 C 83.265 61.360,82.693 61.984,83.281 62.736 C 83.737 63.320,83.721 63.338,83.145 62.888 C 82.383 62.293,80.239 63.015,80.674 63.720 C 80.816 63.949,80.724 64.000,80.462 63.838 C 79.667 63.347,79.102 63.996,79.681 64.736 C 80.137 65.320,80.121 65.338,79.545 64.888 C 78.783 64.293,76.639 65.015,77.074 65.720 C 77.214 65.947,77.125 66.001,76.870 65.843 C 76.291 65.486,74.701 66.317,75.010 66.815 C 75.141 67.028,74.943 67.076,74.555 66.927 C 74.053 66.735,73.956 66.806,74.196 67.194 C 74.412 67.543,74.369 67.628,74.070 67.443 C 73.491 67.086,71.901 67.917,72.210 68.415 C 72.341 68.628,72.143 68.676,71.755 68.527 C 71.293 68.350,71.162 68.415,71.355 68.727 C 71.548 69.040,71.418 69.105,70.955 68.927 C 70.453 68.735,70.356 68.806,70.596 69.194 C 70.814 69.546,70.769 69.628,70.462 69.438 C 69.667 68.947,69.102 69.596,69.681 70.336 C 70.137 70.920,70.121 70.938,69.545 70.488 C 68.783 69.893,66.639 70.615,67.074 71.320 C 67.216 71.549,67.124 71.600,66.862 71.438 C 66.067 70.947,65.502 71.596,66.081 72.336 C 66.536 72.919,66.520 72.938,65.951 72.493 C 65.221 71.923,63.863 72.254,64.264 72.904 C 64.412 73.144,64.332 73.205,64.077 73.048 C 63.512 72.698,56.702 76.558,57.103 77.000 C 57.266 77.181,57.175 77.199,56.900 77.041 C 56.065 76.560,55.493 77.184,56.081 77.936 C 56.536 78.519,56.520 78.538,55.951 78.093 C 55.221 77.523,53.863 77.854,54.264 78.504 C 54.413 78.745,54.332 78.805,54.073 78.645 C 53.490 78.285,48.366 81.222,48.683 81.735 C 48.815 81.949,48.732 82.005,48.498 81.861 C 47.894 81.487,46.753 82.000,47.064 82.504 C 47.216 82.749,47.131 82.805,46.862 82.638 C 46.067 82.147,45.502 82.796,46.081 83.536 C 46.536 84.119,46.520 84.138,45.951 83.693 C 45.221 83.123,43.863 83.454,44.264 84.104 C 44.415 84.349,44.332 84.405,44.063 84.239 C 43.486 83.882,40.288 85.743,40.699 86.196 C 40.864 86.379,40.779 86.401,40.508 86.246 C 39.599 85.723,38.271 86.753,38.855 87.528 C 39.283 88.096,39.275 88.123,38.801 87.700 C 38.096 87.072,37.458 87.047,37.838 87.662 C 38.012 87.943,37.948 88.015,37.675 87.846 C 37.106 87.495,33.097 89.753,33.501 90.198 C 33.665 90.380,33.593 90.410,33.339 90.265 C 32.750 89.928,29.498 91.754,29.899 92.197 C 30.065 92.379,29.975 92.399,29.700 92.241 C 28.865 91.760,28.293 92.384,28.881 93.136 C 29.340 93.723,29.323 93.740,28.730 93.276 C 27.969 92.681,24.559 94.086,25.007 94.811 C 25.141 95.028,24.948 95.078,24.555 94.927 C 24.053 94.735,23.956 94.806,24.196 95.194 C 24.412 95.543,24.369 95.628,24.070 95.443 C 23.196 94.903,21.877 95.965,22.474 96.728 C 22.938 97.321,22.923 97.340,22.345 96.888 C 21.583 96.293,19.439 97.015,19.874 97.720 C 20.016 97.949,19.924 98.000,19.662 97.838 C 18.867 97.347,18.302 97.996,18.881 98.736 C 19.337 99.320,19.321 99.338,18.745 98.888 C 17.983 98.293,15.839 99.015,16.274 99.720 C 16.416 99.949,16.324 100.000,16.062 99.838 C 15.267 99.347,14.702 99.996,15.281 100.736 C 15.736 101.319,15.720 101.338,15.151 100.893 C 14.421 100.323,13.063 100.654,13.464 101.304 C 13.615 101.549,13.532 101.605,13.263 101.439 C 12.686 101.082,9.488 102.943,9.899 103.396 C 10.064 103.579,9.979 103.601,9.708 103.446 C 9.047 103.066,7.506 103.925,7.851 104.482 C 8.007 104.735,7.942 104.811,7.698 104.661 C 7.166 104.332,5.935 104.772,6.198 105.197 C 6.304 105.369,6.083 105.485,5.705 105.455 C 5.254 105.419,5.016 105.697,5.010 106.267 C 5.004 106.743,4.871 107.263,4.713 107.421 C 4.554 107.579,4.499 107.324,4.590 106.854 C 4.680 106.384,4.612 106.000,4.439 106.000 C 3.730 106.000,2.857 107.479,2.968 108.493 C 3.034 109.090,2.921 109.475,2.717 109.348 C 2.512 109.222,2.446 108.858,2.568 108.539 C 2.691 108.220,2.620 108.064,2.410 108.194 C 1.254 108.908,1.204 113.696,1.202 225.450 C 1.200 348.239,1.091 341.471,3.111 343.732 C 4.203 344.955,6.786 346.456,7.277 346.153 C 7.548 345.985,7.612 346.058,7.438 346.338 C 7.058 346.953,7.696 346.928,8.401 346.300 C 8.874 345.878,8.883 345.904,8.461 346.464 C 7.901 347.208,8.473 347.849,9.262 347.362 C 9.548 347.185,9.615 347.252,9.438 347.538 C 9.058 348.153,9.696 348.128,10.401 347.500 C 10.874 347.078,10.883 347.104,10.461 347.664 C 9.901 348.408,10.473 349.049,11.262 348.562 C 11.516 348.405,11.618 348.447,11.489 348.656 C 11.033 349.394,18.803 353.691,19.545 353.112 C 20.121 352.662,20.137 352.680,19.681 353.264 C 19.102 354.004,19.667 354.653,20.462 354.162 C 20.748 353.985,20.815 354.052,20.638 354.338 C 20.258 354.953,20.896 354.928,21.601 354.300 C 22.074 353.878,22.083 353.904,21.661 354.464 C 21.092 355.220,21.670 355.837,22.500 355.359 C 22.775 355.201,22.866 355.219,22.703 355.400 C 22.291 355.855,23.894 356.913,24.463 356.561 C 24.733 356.394,24.815 356.451,24.662 356.699 C 24.337 357.225,27.102 358.908,27.693 358.543 C 27.949 358.385,28.008 358.464,27.838 358.738 C 27.458 359.353,28.096 359.328,28.801 358.700 C 29.274 358.278,29.283 358.304,28.861 358.864 C 28.292 359.620,28.870 360.237,29.700 359.759 C 29.975 359.601,30.061 359.624,29.892 359.811 C 29.505 360.236,33.094 362.513,33.628 362.182 C 33.844 362.049,33.970 362.179,33.910 362.470 C 33.848 362.771,34.114 362.974,34.527 362.940 C 34.926 362.907,35.152 362.981,35.029 363.104 C 34.645 363.488,36.374 364.462,36.901 364.159 C 37.175 364.001,37.266 364.019,37.103 364.200 C 36.691 364.655,38.294 365.713,38.863 365.361 C 39.148 365.185,39.215 365.252,39.038 365.538 C 38.658 366.153,39.296 366.128,40.001 365.500 C 40.474 365.078,40.483 365.104,40.061 365.664 C 39.501 366.408,40.073 367.049,40.862 366.562 C 41.148 366.385,41.215 366.452,41.038 366.738 C 40.658 367.353,41.296 367.328,42.001 366.700 C 42.474 366.278,42.483 366.304,42.061 366.864 C 41.492 367.620,42.070 368.237,42.900 367.759 C 43.175 367.601,43.266 367.620,43.102 367.800 C 42.683 368.263,45.507 370.100,46.107 369.755 C 46.378 369.599,46.466 369.619,46.303 369.800 C 45.891 370.255,47.494 371.313,48.063 370.961 C 48.348 370.785,48.415 370.852,48.238 371.138 C 47.858 371.753,48.496 371.728,49.201 371.100 C 49.674 370.678,49.683 370.704,49.261 371.264 C 48.701 372.008,49.273 372.649,50.062 372.162 C 50.348 371.985,50.415 372.052,50.238 372.338 C 49.858 372.953,50.496 372.928,51.201 372.300 C 51.674 371.878,51.683 371.904,51.261 372.464 C 50.692 373.220,51.270 373.837,52.100 373.359 C 52.375 373.201,52.463 373.222,52.297 373.406 C 51.894 373.850,56.730 376.891,57.289 376.545 C 57.549 376.385,57.609 376.462,57.438 376.738 C 57.058 377.353,57.696 377.328,58.401 376.700 C 58.874 376.278,58.883 376.304,58.461 376.864 C 57.901 377.608,58.473 378.249,59.262 377.762 C 59.548 377.585,59.615 377.652,59.438 377.938 C 59.058 378.553,59.696 378.528,60.401 377.900 C 60.874 377.478,60.883 377.504,60.461 378.064 C 59.920 378.783,60.462 379.456,61.210 378.994 C 61.435 378.855,61.570 378.979,61.510 379.270 C 61.449 379.563,61.711 379.775,62.096 379.745 C 62.491 379.714,62.679 379.873,62.530 380.113 C 62.366 380.379,62.523 380.438,62.955 380.273 C 63.333 380.128,63.554 380.150,63.448 380.323 C 63.021 381.014,68.843 384.060,69.544 383.513 C 70.121 383.062,70.138 383.080,69.681 383.664 C 69.102 384.404,69.667 385.053,70.462 384.562 C 70.748 384.385,70.815 384.452,70.638 384.738 C 70.258 385.353,70.896 385.328,71.601 384.700 C 72.074 384.278,72.083 384.304,71.661 384.864 C 71.101 385.608,71.673 386.249,72.462 385.762 C 72.740 385.590,72.815 385.652,72.651 385.918 C 72.329 386.439,73.833 387.350,74.418 386.989 C 74.639 386.852,74.770 386.979,74.710 387.270 C 74.649 387.563,74.911 387.775,75.296 387.745 C 75.678 387.715,75.893 387.850,75.772 388.045 C 75.445 388.574,76.157 388.474,76.801 387.900 C 77.274 387.478,77.283 387.504,76.861 388.064 C 76.301 388.808,76.873 389.449,77.662 388.962 C 77.948 388.785,78.015 388.852,77.838 389.138 C 77.458 389.753,78.096 389.728,78.801 389.100 C 79.274 388.678,79.283 388.704,78.861 389.264 C 78.292 390.020,78.870 390.637,79.700 390.159 C 79.975 390.001,80.061 390.024,79.892 390.211 C 79.505 390.636,83.094 392.913,83.628 392.582 C 83.844 392.449,83.970 392.579,83.910 392.870 C 83.848 393.171,84.114 393.374,84.527 393.340 C 84.926 393.307,85.152 393.381,85.029 393.504 C 84.655 393.879,86.368 394.867,86.863 394.561 C 87.148 394.385,87.215 394.452,87.038 394.738 C 86.658 395.353,87.296 395.328,88.001 394.700 C 88.474 394.278,88.483 394.304,88.061 394.864 C 87.501 395.608,88.073 396.249,88.862 395.762 C 89.117 395.604,89.216 395.650,89.084 395.865 C 88.623 396.610,91.145 397.739,91.919 397.134 C 92.524 396.659,92.542 396.674,92.081 397.264 C 91.522 397.979,92.056 398.660,92.810 398.194 C 93.035 398.055,93.170 398.179,93.110 398.470 C 93.049 398.763,93.311 398.975,93.696 398.945 C 94.091 398.914,94.279 399.073,94.130 399.313 C 93.968 399.576,94.119 399.640,94.530 399.482 C 94.937 399.326,95.154 399.415,95.095 399.714 C 95.043 399.981,95.327 400.173,95.727 400.140 C 96.126 400.107,96.352 400.181,96.229 400.304 C 95.855 400.679,97.568 401.667,98.063 401.361 C 98.340 401.190,98.415 401.252,98.251 401.518 C 97.929 402.039,99.433 402.950,100.018 402.589 C 100.239 402.452,100.370 402.579,100.310 402.870 C 100.248 403.171,100.514 403.374,100.927 403.340 C 101.326 403.307,101.554 403.379,101.433 403.500 C 101.060 403.873,106.810 407.240,107.320 406.947 C 107.584 406.796,107.666 406.819,107.503 407.000 C 107.091 407.455,108.694 408.513,109.263 408.161 C 109.548 407.985,109.615 408.052,109.438 408.338 C 109.058 408.953,109.696 408.928,110.401 408.300 C 110.874 407.878,110.883 407.904,110.461 408.464 C 109.920 409.183,110.462 409.856,111.210 409.394 C 111.435 409.255,111.570 409.379,111.510 409.670 C 111.449 409.963,111.711 410.175,112.096 410.145 C 112.491 410.114,112.679 410.273,112.530 410.513 C 112.368 410.776,112.519 410.840,112.930 410.682 C 113.337 410.526,113.554 410.615,113.495 410.914 C 113.443 411.181,113.727 411.373,114.127 411.340 C 114.526 411.307,114.752 411.381,114.629 411.504 C 114.062 412.072,118.878 414.433,119.543 413.914 C 120.121 413.461,120.138 413.479,119.681 414.064 C 119.102 414.804,119.667 415.453,120.462 414.962 C 120.748 414.785,120.815 414.852,120.638 415.138 C 120.258 415.753,120.896 415.728,121.601 415.100 C 122.074 414.678,122.083 414.704,121.661 415.264 C 121.101 416.008,121.673 416.649,122.462 416.162 C 122.748 415.985,122.815 416.052,122.638 416.338 C 122.258 416.953,122.896 416.928,123.601 416.300 C 124.075 415.877,124.083 415.904,123.655 416.472 C 122.959 417.395,124.192 418.027,127.154 418.268 C 130.742 418.560,133.181 416.490,132.568 413.672 C 132.388 412.842,132.432 412.736,132.762 413.200 C 133.065 413.627,133.189 406.894,133.192 389.800 C 133.195 366.869,133.000 362.382,132.024 362.985 C 131.840 363.099,131.715 362.878,131.745 362.496 C 131.775 362.111,131.563 361.849,131.270 361.910 C 130.979 361.970,130.846 361.849,130.975 361.640 C 131.281 361.145,128.930 359.473,128.393 359.804 C 128.166 359.945,128.030 359.821,128.090 359.530 C 128.151 359.237,127.889 359.025,127.504 359.055 C 127.122 359.085,126.907 358.950,127.028 358.755 C 127.355 358.226,126.643 358.326,125.999 358.900 C 125.526 359.322,125.517 359.296,125.939 358.736 C 126.499 357.992,125.927 357.351,125.138 357.838 C 124.883 357.996,124.784 357.950,124.916 357.735 C 125.377 356.990,122.855 355.861,122.081 356.466 C 121.476 356.941,121.458 356.926,121.919 356.336 C 122.478 355.621,121.944 354.940,121.190 355.406 C 120.965 355.545,120.830 355.421,120.890 355.130 C 120.951 354.837,120.689 354.625,120.304 354.655 C 119.909 354.686,119.721 354.527,119.870 354.287 C 120.032 354.024,119.881 353.960,119.470 354.118 C 119.063 354.274,118.846 354.185,118.905 353.886 C 118.957 353.619,118.687 353.425,118.304 353.455 C 117.909 353.486,117.721 353.327,117.870 353.087 C 118.032 352.824,117.881 352.760,117.470 352.918 C 117.063 353.074,116.846 352.985,116.905 352.686 C 116.957 352.419,116.687 352.225,116.304 352.255 C 115.922 352.285,115.707 352.150,115.828 351.955 C 116.155 351.426,115.443 351.526,114.799 352.100 C 114.326 352.522,114.317 352.496,114.739 351.936 C 115.299 351.192,114.727 350.551,113.938 351.038 C 113.660 351.210,113.585 351.148,113.749 350.882 C 114.071 350.361,112.567 349.450,111.982 349.811 C 111.761 349.948,111.630 349.821,111.690 349.530 C 111.751 349.237,111.489 349.025,111.104 349.055 C 110.709 349.086,110.521 348.927,110.670 348.687 C 110.832 348.424,110.681 348.360,110.270 348.518 C 109.863 348.674,109.646 348.585,109.705 348.286 C 109.757 348.019,109.487 347.825,109.104 347.855 C 108.709 347.886,108.521 347.727,108.670 347.487 C 108.832 347.224,108.681 347.160,108.270 347.318 C 107.863 347.474,107.646 347.385,107.705 347.086 C 107.757 346.819,107.487 346.625,107.104 346.655 C 106.722 346.685,106.507 346.550,106.628 346.355 C 106.955 345.826,106.243 345.926,105.599 346.500 C 105.126 346.922,105.117 346.896,105.539 346.336 C 106.099 345.592,105.527 344.951,104.738 345.438 C 104.452 345.615,104.385 345.548,104.562 345.262 C 104.942 344.647,104.304 344.672,103.599 345.300 C 103.126 345.722,103.117 345.696,103.539 345.136 C 104.099 344.392,103.527 343.751,102.738 344.238 C 102.467 344.406,102.384 344.349,102.538 344.101 C 102.863 343.575,100.098 341.892,99.507 342.257 C 99.232 342.428,99.194 342.333,99.404 341.994 C 99.641 341.610,99.549 341.534,99.070 341.718 C 98.663 341.874,98.446 341.785,98.505 341.486 C 98.557 341.219,98.287 341.025,97.904 341.055 C 97.522 341.085,97.302 340.959,97.416 340.775 C 97.706 340.305,96.081 339.503,95.530 339.843 C 95.252 340.015,95.187 339.945,95.362 339.662 C 95.742 339.047,95.104 339.072,94.399 339.700 C 93.926 340.122,93.917 340.096,94.339 339.536 C 94.899 338.792,94.327 338.151,93.538 338.638 C 93.260 338.810,93.185 338.748,93.349 338.482 C 93.671 337.961,92.167 337.050,91.582 337.411 C 91.361 337.548,91.230 337.421,91.290 337.130 C 91.351 336.837,91.089 336.625,90.704 336.655 C 90.309 336.686,90.121 336.527,90.270 336.287 C 90.432 336.024,90.281 335.960,89.870 336.118 C 89.463 336.274,89.246 336.185,89.305 335.886 C 89.357 335.619,89.087 335.425,88.704 335.455 C 88.322 335.485,88.107 335.350,88.228 335.155 C 88.555 334.626,87.843 334.726,87.199 335.300 C 86.726 335.722,86.717 335.696,87.139 335.136 C 87.708 334.380,87.130 333.763,86.300 334.241 C 86.025 334.399,85.939 334.376,86.108 334.189 C 86.518 333.738,82.889 331.498,82.320 331.850 C 82.059 332.011,81.989 331.942,82.149 331.682 C 82.471 331.161,80.967 330.250,80.382 330.611 C 80.161 330.748,80.030 330.621,80.090 330.330 C 80.151 330.037,79.889 329.825,79.504 329.855 C 79.122 329.885,78.907 329.750,79.028 329.555 C 79.355 329.026,78.643 329.126,77.999 329.700 C 77.526 330.122,77.517 330.096,77.939 329.536 C 78.499 328.792,77.927 328.151,77.138 328.638 C 76.852 328.815,76.785 328.748,76.962 328.462 C 77.342 327.847,76.704 327.872,75.999 328.500 C 75.526 328.922,75.517 328.896,75.939 328.336 C 76.508 327.580,75.930 326.963,75.100 327.441 C 74.825 327.599,74.734 327.581,74.897 327.400 C 75.309 326.945,73.706 325.887,73.137 326.239 C 72.860 326.410,72.785 326.348,72.949 326.082 C 73.412 325.334,71.666 324.653,70.874 325.272 C 70.277 325.740,70.259 325.724,70.719 325.136 C 71.298 324.396,70.733 323.747,69.938 324.238 C 69.631 324.428,69.586 324.346,69.804 323.994 C 70.041 323.610,69.949 323.534,69.470 323.718 C 69.063 323.874,68.846 323.785,68.905 323.486 C 68.957 323.219,68.687 323.025,68.304 323.055 C 67.909 323.086,67.721 322.927,67.870 322.687 C 68.032 322.424,67.881 322.360,67.470 322.518 C 67.063 322.674,66.846 322.585,66.905 322.286 C 66.957 322.019,66.687 321.825,66.304 321.855 C 65.922 321.885,65.707 321.750,65.828 321.555 C 66.155 321.026,65.443 321.126,64.799 321.700 C 64.326 322.122,64.317 322.096,64.739 321.536 C 65.299 320.792,64.727 320.151,63.938 320.638 C 63.660 320.810,63.585 320.748,63.749 320.482 C 64.071 319.961,62.567 319.050,61.982 319.411 C 61.761 319.548,61.630 319.421,61.690 319.130 C 61.751 318.837,61.489 318.625,61.104 318.655 C 60.722 318.685,60.507 318.550,60.628 318.355 C 60.955 317.826,60.243 317.926,59.599 318.500 C 59.126 318.922,59.117 318.896,59.539 318.336 C 60.099 317.592,59.527 316.951,58.738 317.438 C 58.452 317.615,58.385 317.548,58.562 317.262 C 58.942 316.647,58.304 316.672,57.599 317.300 C 57.126 317.722,57.117 317.696,57.539 317.136 C 58.099 316.392,57.527 315.751,56.738 316.238 C 56.452 316.415,56.385 316.348,56.562 316.062 C 56.942 315.447,56.304 315.472,55.599 316.100 C 55.126 316.522,55.117 316.496,55.539 315.936 C 56.099 315.192,55.527 314.551,54.738 315.038 C 54.469 315.205,54.384 315.149,54.536 314.904 C 54.679 314.673,54.517 314.377,54.177 314.246 C 53.837 314.116,53.661 314.175,53.786 314.377 C 53.911 314.579,53.833 314.856,53.613 314.992 C 53.348 315.156,53.210 285.542,53.203 226.619 C 53.196 164.064,53.319 138.000,53.620 138.000 C 53.855 138.000,53.919 137.792,53.762 137.538 C 53.594 137.266,53.651 137.184,53.902 137.339 C 54.506 137.713,55.647 137.200,55.336 136.696 C 55.184 136.451,55.269 136.395,55.538 136.562 C 56.333 137.053,56.898 136.404,56.319 135.664 C 55.864 135.081,55.880 135.062,56.449 135.507 C 57.179 136.077,58.537 135.746,58.136 135.096 C 57.993 134.865,58.066 134.794,58.299 134.937 C 58.851 135.279,62.093 133.436,61.701 133.003 C 61.535 132.821,61.625 132.801,61.900 132.959 C 62.735 133.440,63.307 132.816,62.719 132.064 C 62.264 131.481,62.280 131.462,62.849 131.907 C 63.579 132.477,64.937 132.146,64.536 131.496 C 64.386 131.254,64.468 131.195,64.730 131.357 C 65.604 131.897,66.923 130.835,66.326 130.072 C 65.863 129.481,65.878 129.461,66.449 129.907 C 67.179 130.477,68.537 130.146,68.136 129.496 C 67.986 129.254,68.068 129.195,68.330 129.357 C 69.204 129.897,70.523 128.835,69.926 128.072 C 69.463 127.481,69.478 127.461,70.049 127.907 C 70.779 128.477,72.137 128.146,71.736 127.496 C 71.584 127.251,71.669 127.195,71.938 127.362 C 72.733 127.853,73.298 127.204,72.719 126.464 C 72.258 125.874,72.276 125.859,72.881 126.334 C 73.643 126.930,78.711 124.476,78.103 123.805 C 77.936 123.622,78.025 123.601,78.299 123.759 C 78.912 124.112,82.121 122.267,81.701 121.804 C 81.536 121.621,81.625 121.601,81.900 121.759 C 82.735 122.240,83.307 121.616,82.719 120.864 C 82.263 120.280,82.279 120.262,82.855 120.712 C 83.617 121.307,85.761 120.585,85.326 119.880 C 85.189 119.658,85.273 119.598,85.514 119.747 C 86.072 120.092,88.498 118.641,88.099 118.201 C 87.934 118.020,88.020 117.998,88.288 118.152 C 88.906 118.507,91.306 117.296,90.992 116.788 C 90.859 116.572,91.054 116.523,91.445 116.673 C 91.947 116.865,92.044 116.794,91.804 116.406 C 91.586 116.054,91.631 115.972,91.937 116.161 C 92.514 116.518,95.712 114.657,95.301 114.204 C 95.136 114.021,95.225 114.001,95.500 114.159 C 96.335 114.640,96.907 114.016,96.319 113.264 C 95.863 112.680,95.879 112.662,96.455 113.112 C 97.217 113.707,99.361 112.985,98.926 112.280 C 98.786 112.053,98.875 111.999,99.130 112.157 C 99.752 112.541,101.287 111.665,100.949 111.118 C 100.784 110.851,100.860 110.790,101.140 110.963 C 101.718 111.320,109.310 107.054,108.899 106.602 C 108.735 106.420,108.825 106.401,109.099 106.559 C 109.678 106.892,111.336 105.869,110.910 105.443 C 110.753 105.286,110.963 105.288,111.378 105.447 C 111.942 105.664,112.049 105.603,111.804 105.206 C 111.588 104.857,111.631 104.772,111.930 104.957 C 112.804 105.497,114.123 104.435,113.526 103.672 C 113.057 103.073,113.074 103.058,113.681 103.534 C 114.443 104.130,119.511 101.676,118.903 101.005 C 118.736 100.822,118.814 100.795,119.076 100.945 C 119.670 101.285,122.107 99.851,121.699 99.401 C 121.534 99.220,121.621 99.199,121.892 99.354 C 122.811 99.883,124.132 98.846,123.526 98.072 C 123.062 97.479,123.077 97.460,123.655 97.912 C 124.417 98.507,126.561 97.785,126.126 97.080 C 125.984 96.851,126.076 96.800,126.338 96.962 C 127.133 97.453,127.698 96.804,127.119 96.064 C 126.658 95.474,126.676 95.459,127.281 95.934 C 128.048 96.534,132.169 94.598,131.709 93.853 C 131.581 93.646,131.678 93.601,131.925 93.754 C 132.494 94.105,136.503 91.847,136.099 91.402 C 135.935 91.220,136.025 91.201,136.300 91.359 C 137.135 91.840,137.707 91.216,137.119 90.464 C 136.663 89.880,136.679 89.862,137.255 90.312 C 138.017 90.907,140.161 90.185,139.726 89.480 C 139.584 89.251,139.676 89.200,139.938 89.362 C 140.733 89.853,141.298 89.204,140.719 88.464 C 140.264 87.881,140.280 87.862,140.849 88.307 C 141.579 88.877,142.937 88.546,142.536 87.896 C 142.386 87.654,142.468 87.595,142.730 87.757 C 143.604 88.297,144.923 87.235,144.326 86.472 C 143.863 85.881,143.878 85.861,144.449 86.307 C 145.179 86.877,146.537 86.546,146.136 85.896 C 145.985 85.651,146.068 85.595,146.337 85.761 C 146.914 86.118,150.112 84.257,149.701 83.804 C 149.536 83.621,149.625 83.601,149.900 83.759 C 150.735 84.240,151.307 83.616,150.719 82.864 C 150.264 82.281,150.280 82.262,150.849 82.707 C 151.579 83.277,152.937 82.946,152.536 82.296 C 152.386 82.054,152.468 81.995,152.730 82.157 C 153.604 82.697,154.923 81.635,154.326 80.872 C 153.863 80.281,153.878 80.261,154.449 80.707 C 155.179 81.277,156.537 80.946,156.136 80.296 C 155.986 80.054,156.068 79.995,156.330 80.157 C 157.204 80.697,158.523 79.635,157.926 78.872 C 157.457 78.273,157.474 78.258,158.081 78.734 C 158.843 79.330,163.911 76.876,163.303 76.205 C 163.136 76.022,163.225 76.001,163.500 76.159 C 164.335 76.640,164.907 76.016,164.319 75.264 C 163.864 74.681,163.880 74.662,164.449 75.107 C 165.179 75.677,166.537 75.346,166.136 74.696 C 165.986 74.454,166.068 74.395,166.330 74.557 C 167.204 75.097,168.523 74.035,167.926 73.272 C 167.457 72.673,167.474 72.658,168.081 73.134 C 168.843 73.730,173.911 71.276,173.303 70.605 C 173.136 70.422,173.225 70.401,173.499 70.559 C 174.078 70.892,175.736 69.869,175.310 69.443 C 175.153 69.286,175.363 69.288,175.778 69.447 C 176.342 69.664,176.449 69.603,176.204 69.206 C 175.988 68.857,176.031 68.772,176.330 68.957 C 177.204 69.497,178.523 68.435,177.926 67.672 C 177.462 67.079,177.477 67.060,178.055 67.512 C 178.817 68.107,180.961 67.385,180.526 66.680 C 180.384 66.451,180.476 66.400,180.738 66.562 C 181.533 67.053,182.098 66.404,181.519 65.664 C 181.064 65.081,181.080 65.062,181.649 65.507 C 182.379 66.077,183.737 65.746,183.336 65.096 C 183.189 64.859,183.267 64.794,183.514 64.947 C 184.072 65.292,186.498 63.841,186.099 63.401 C 185.934 63.220,186.015 63.195,186.277 63.345 C 187.174 63.860,195.645 58.742,195.085 58.023 C 194.658 57.475,194.684 57.466,195.300 57.949 C 195.958 58.465,196.000 60.727,196.000 95.316 C 196.000 115.565,196.135 131.998,196.300 131.833 C 196.465 131.669,196.692 114.944,196.805 94.667 L 197.010 57.800 197.103 94.000 C 197.163 117.464,197.053 130.712,196.791 131.656 C 196.359 133.213,196.877 135.447,197.572 135.018 C 197.777 134.891,198.060 134.973,198.200 135.200 C 198.340 135.427,198.668 135.491,198.928 135.342 C 199.187 135.194,199.267 135.219,199.103 135.399 C 198.940 135.579,199.025 136.013,199.291 136.363 C 199.558 136.713,199.286 136.564,198.688 136.030 C 198.090 135.497,197.600 135.268,197.600 135.521 C 197.600 136.164,199.473 137.326,199.992 137.005 C 200.227 136.859,200.370 136.979,200.310 137.270 C 200.248 137.571,200.514 137.774,200.927 137.740 C 201.326 137.707,201.551 137.782,201.426 137.908 C 201.070 138.263,204.427 140.031,204.901 139.737 C 205.134 139.594,205.207 139.665,205.064 139.896 C 204.663 140.546,206.021 140.877,206.751 140.307 C 207.322 139.861,207.337 139.881,206.874 140.472 C 206.277 141.235,207.596 142.297,208.470 141.757 C 208.732 141.595,208.814 141.654,208.664 141.896 C 208.263 142.546,209.621 142.877,210.351 142.307 C 210.920 141.862,210.936 141.881,210.481 142.464 C 209.902 143.204,210.467 143.853,211.262 143.362 C 211.524 143.200,211.616 143.251,211.474 143.480 C 211.039 144.185,213.183 144.907,213.945 144.312 C 214.521 143.862,214.537 143.880,214.081 144.464 C 213.502 145.204,214.067 145.853,214.862 145.362 C 215.124 145.200,215.216 145.251,215.074 145.480 C 214.639 146.185,216.783 146.907,217.545 146.312 C 218.123 145.860,218.138 145.879,217.674 146.472 C 217.077 147.235,218.396 148.297,219.270 147.757 C 219.532 147.595,219.614 147.654,219.464 147.896 C 219.063 148.546,220.421 148.877,221.151 148.307 C 221.720 147.862,221.736 147.881,221.281 148.464 C 220.702 149.204,221.267 149.853,222.062 149.362 C 222.324 149.200,222.416 149.251,222.274 149.480 C 221.839 150.185,223.983 150.907,224.745 150.312 C 225.321 149.862,225.337 149.880,224.881 150.464 C 224.302 151.204,224.867 151.853,225.662 151.362 C 225.969 151.172,226.014 151.254,225.796 151.606 C 225.556 151.994,225.653 152.065,226.155 151.873 C 226.618 151.695,226.748 151.760,226.555 152.073 C 226.362 152.385,226.493 152.450,226.955 152.273 C 227.343 152.124,227.541 152.172,227.410 152.385 C 227.101 152.883,228.691 153.714,229.270 153.357 C 229.525 153.199,229.614 153.253,229.474 153.480 C 229.039 154.185,231.183 154.907,231.945 154.312 C 232.523 153.860,232.538 153.879,232.074 154.472 C 231.468 155.246,232.789 156.283,233.708 155.754 C 233.979 155.599,234.065 155.620,233.901 155.802 C 233.736 155.983,234.276 156.539,235.101 157.036 L 236.600 157.941 236.800 251.870 C 237.023 356.662,236.749 347.487,239.707 349.085 C 242.579 350.637,252.860 348.915,251.721 347.073 C 251.584 346.851,251.679 346.802,251.938 346.962 C 252.727 347.449,253.299 346.808,252.739 346.064 C 252.317 345.504,252.326 345.478,252.799 345.900 C 253.504 346.528,254.142 346.553,253.762 345.938 C 253.594 345.666,253.651 345.584,253.901 345.739 C 254.420 346.059,258.839 343.586,258.558 343.132 C 258.448 342.955,258.667 342.928,259.045 343.073 C 259.547 343.265,259.644 343.194,259.404 342.806 C 259.186 342.454,259.231 342.372,259.538 342.562 C 260.333 343.053,260.898 342.404,260.319 341.664 C 259.857 341.073,259.876 341.059,260.484 341.536 C 261.248 342.134,268.171 338.601,267.706 337.849 C 267.580 337.644,267.673 337.598,267.914 337.747 C 268.472 338.092,270.898 336.641,270.499 336.201 C 270.334 336.020,270.425 336.001,270.700 336.159 C 271.535 336.640,272.107 336.016,271.519 335.264 C 271.064 334.681,271.080 334.662,271.649 335.107 C 272.379 335.677,273.737 335.346,273.336 334.696 C 273.184 334.451,273.269 334.395,273.538 334.562 C 274.327 335.049,274.899 334.408,274.339 333.664 C 273.917 333.104,273.926 333.078,274.399 333.500 C 275.104 334.128,275.742 334.153,275.362 333.538 C 275.187 333.255,275.252 333.185,275.530 333.357 C 276.404 333.897,277.723 332.835,277.126 332.072 C 276.663 331.481,276.678 331.461,277.249 331.907 C 277.979 332.477,279.337 332.146,278.936 331.496 C 278.784 331.251,278.869 331.195,279.138 331.362 C 279.933 331.853,280.498 331.204,279.919 330.464 C 279.454 329.869,279.473 329.857,280.107 330.355 C 280.919 330.992,286.702 327.809,286.490 326.841 C 286.430 326.566,286.556 326.449,286.770 326.581 C 287.962 327.318,288.013 324.401,288.003 256.014 C 287.997 214.134,288.139 186.800,288.362 186.800 C 288.564 186.800,290.010 187.538,291.575 188.440 C 294.051 189.868,294.510 190.011,295.110 189.540 C 295.725 189.059,295.744 189.072,295.281 189.664 C 294.693 190.416,295.265 191.040,296.100 190.559 C 296.375 190.401,296.464 190.422,296.297 190.606 C 295.909 191.033,299.964 193.270,300.512 192.931 C 300.738 192.791,300.811 192.858,300.674 193.080 C 300.239 193.785,302.383 194.507,303.145 193.912 C 303.721 193.462,303.737 193.480,303.281 194.064 C 302.693 194.816,303.265 195.440,304.100 194.959 C 304.375 194.801,304.465 194.820,304.301 195.002 C 303.897 195.447,307.906 197.705,308.475 197.354 C 308.722 197.201,308.819 197.246,308.691 197.453 C 308.231 198.198,312.352 200.134,313.119 199.534 C 313.724 199.059,313.742 199.074,313.281 199.664 C 312.702 200.404,313.267 201.053,314.062 200.562 C 314.317 200.404,314.416 200.450,314.283 200.665 C 313.934 201.230,317.964 203.156,320.110 203.450 C 322.104 203.723,324.160 203.382,323.821 202.833 C 323.704 202.645,323.922 202.515,324.304 202.545 C 324.687 202.575,324.955 202.375,324.900 202.100 C 324.845 201.825,325.025 201.645,325.300 201.700 C 325.575 201.755,325.775 201.487,325.745 201.104 C 325.715 200.722,325.828 200.494,325.996 200.598 C 326.926 201.172,327.260 153.096,326.346 150.360 C 325.789 148.694,324.014 146.709,323.320 146.975 C 323.039 147.083,322.852 146.953,322.905 146.686 C 322.957 146.419,322.673 146.227,322.273 146.260 C 321.874 146.293,321.649 146.217,321.775 146.092 C 322.150 145.717,318.837 143.930,318.337 144.239 C 318.084 144.395,317.983 144.351,318.113 144.140 C 318.578 143.388,313.658 141.058,312.884 141.664 C 312.276 142.141,312.257 142.127,312.719 141.536 C 313.307 140.784,312.735 140.160,311.900 140.641 C 311.625 140.799,311.535 140.780,311.699 140.598 C 312.112 140.143,308.092 137.901,307.487 138.249 C 307.219 138.402,307.135 138.379,307.301 138.197 C 307.693 137.764,304.451 135.921,303.899 136.263 C 303.666 136.406,303.593 136.335,303.736 136.104 C 304.137 135.454,302.779 135.123,302.049 135.693 C 301.478 136.139,301.463 136.119,301.926 135.528 C 302.523 134.765,301.204 133.703,300.330 134.243 C 300.031 134.428,299.988 134.343,300.204 133.994 C 300.444 133.606,300.347 133.535,299.845 133.727 C 299.457 133.876,299.259 133.828,299.390 133.615 C 299.705 133.107,298.108 132.292,297.492 132.646 C 297.221 132.801,297.135 132.779,297.301 132.597 C 297.693 132.164,294.451 130.321,293.899 130.663 C 293.666 130.806,293.589 130.742,293.726 130.520 C 294.161 129.815,292.017 129.093,291.255 129.688 C 290.677 130.140,290.662 130.121,291.126 129.528 C 291.732 128.754,290.411 127.717,289.492 128.246 C 289.221 128.401,289.136 128.379,289.301 128.196 C 289.712 127.743,286.514 125.882,285.937 126.239 C 285.668 126.405,285.585 126.349,285.736 126.104 C 286.137 125.454,284.779 125.123,284.049 125.693 C 283.480 126.138,283.464 126.119,283.919 125.536 C 284.498 124.796,283.933 124.147,283.138 124.638 C 282.876 124.800,282.784 124.749,282.926 124.520 C 283.361 123.815,281.217 123.093,280.455 123.688 C 279.879 124.138,279.863 124.120,280.319 123.536 C 280.898 122.796,280.333 122.147,279.538 122.638 C 279.276 122.800,279.184 122.749,279.326 122.520 C 279.761 121.815,277.617 121.093,276.855 121.688 C 276.277 122.140,276.262 122.121,276.726 121.528 C 277.332 120.754,276.011 119.717,275.092 120.246 C 274.821 120.401,274.735 120.379,274.901 120.197 C 275.293 119.764,272.051 117.921,271.499 118.263 C 271.232 118.428,271.197 118.329,271.404 117.994 C 271.644 117.606,271.547 117.535,271.045 117.727 C 270.637 117.884,270.458 117.830,270.603 117.595 C 270.950 117.034,270.267 117.105,269.599 117.700 C 269.126 118.122,269.117 118.096,269.539 117.536 C 270.108 116.780,269.530 116.163,268.700 116.641 C 268.425 116.799,268.336 116.779,268.501 116.596 C 268.921 116.133,265.712 114.288,265.099 114.641 C 264.825 114.799,264.735 114.779,264.901 114.597 C 265.293 114.164,262.051 112.321,261.499 112.663 C 261.266 112.806,261.193 112.735,261.336 112.504 C 261.647 112.000,260.506 111.487,259.902 111.861 C 259.668 112.005,259.587 111.945,259.722 111.726 C 260.189 110.970,256.865 109.453,256.083 110.065 C 255.474 110.542,255.457 110.527,255.926 109.928 C 256.532 109.154,255.211 108.117,254.292 108.646 C 254.021 108.801,253.934 108.780,254.099 108.599 C 254.498 108.159,252.072 106.708,251.514 107.053 C 251.273 107.202,251.189 107.142,251.326 106.920 C 251.635 106.419,249.700 105.491,249.108 105.857 C 248.832 106.028,248.794 105.933,249.004 105.594 C 249.241 105.210,249.149 105.134,248.670 105.318 C 248.307 105.457,248.029 105.443,248.052 105.286 C 248.499 102.288,247.864 22.788,247.400 23.600 C 246.711 24.805,246.650 24.551,247.228 22.893 C 247.867 21.057,245.542 17.230,244.119 17.776 C 243.839 17.883,243.652 17.753,243.705 17.486 C 243.757 17.219,243.487 17.025,243.104 17.055 C 242.722 17.085,242.496 16.969,242.602 16.797 C 242.954 16.227,241.511 15.977,240.849 16.493 C 240.280 16.938,240.264 16.919,240.719 16.336 C 241.298 15.596,240.733 14.947,239.938 15.438 C 239.631 15.628,239.586 15.546,239.804 15.194 C 240.044 14.806,239.947 14.735,239.445 14.927 C 239.067 15.072,238.848 15.046,238.957 14.869 C 239.389 14.170,236.813 13.093,236.081 13.666 C 235.476 14.141,235.458 14.126,235.919 13.536 C 236.498 12.796,235.933 12.147,235.138 12.638 C 234.852 12.815,234.785 12.748,234.962 12.462 C 235.342 11.847,234.704 11.872,233.999 12.500 C 233.526 12.922,233.517 12.896,233.939 12.336 C 234.508 11.580,233.930 10.963,233.100 11.441 C 232.825 11.599,232.736 11.579,232.901 11.396 C 233.507 10.728,230.041 9.072,229.282 9.666 C 228.676 10.141,228.658 10.126,229.119 9.536 C 229.707 8.784,229.135 8.160,228.300 8.641 C 228.025 8.799,227.936 8.779,228.101 8.596 C 228.707 7.928,225.241 6.272,224.482 6.866 C 223.874 7.342,223.857 7.327,224.326 6.728 C 224.923 5.965,223.604 4.903,222.730 5.443 C 222.459 5.611,222.386 5.546,222.549 5.282 C 222.887 4.735,221.352 3.859,220.730 4.243 C 220.431 4.428,220.388 4.343,220.604 3.994 C 220.844 3.606,220.747 3.535,220.245 3.727 C 219.867 3.872,219.647 3.848,219.754 3.674 C 220.193 2.963,215.608 0.698,214.881 1.266 C 214.283 1.735,214.260 1.723,214.697 1.163 C 214.970 0.813,215.070 0.403,214.919 0.252 C 214.398 -0.269,194.756 0.001,195.051 0.525 C 195.234 0.851,195.149 0.844,194.779 0.500 C 194.205 -0.032,194.084 -0.051,193.298 0.266 M1.989 339.263 L 1.577 340.200 1.783 339.200 C 1.896 338.650,2.036 287.350,2.094 225.200 L 2.199 112.200 2.300 225.263 C 2.369 302.174,2.270 338.626,1.989 339.263 M52.300 269.700 C 52.243 293.735,52.196 274.070,52.196 226.000 C 52.196 177.930,52.243 158.265,52.300 182.300 C 52.357 206.335,52.357 245.665,52.300 269.700 M287.218 325.739 C 286.865 326.089,286.823 326.015,287.044 325.434 C 287.248 324.900,287.195 324.756,286.868 324.958 C 286.366 325.268,286.217 324.717,286.678 324.255 C 286.831 324.103,287.119 324.270,287.319 324.627 C 287.554 325.047,287.518 325.441,287.218 325.739 M285.666 326.530 C 285.186 327.041,284.896 327.563,285.023 327.690 C 285.150 327.816,285.077 328.029,284.862 328.162 C 284.211 328.564,284.590 327.295,285.383 326.419 C 285.790 325.969,286.217 325.600,286.332 325.600 C 286.446 325.600,286.146 326.018,285.666 326.530 M128.500 417.882 C 128.005 417.978,127.195 417.978,126.700 417.882 C 126.205 417.787,126.610 417.709,127.600 417.709 C 128.590 417.709,128.995 417.787,128.500 417.882 " stroke="none" fill="#5cd474" fill-rule="evenodd"></path><path id="path1" d="M267.702 42.425 C 266.192 42.887,265.016 44.452,265.316 45.601 C 265.431 46.041,265.383 46.313,265.208 46.205 C 264.508 45.772,264.411 48.685,264.411 70.200 C 264.411 91.563,264.510 94.626,265.188 94.208 C 265.351 94.107,265.399 94.469,265.296 95.012 C 265.060 96.243,268.006 99.437,269.018 99.049 C 269.426 98.892,269.543 98.969,269.355 99.273 C 269.162 99.585,269.293 99.650,269.755 99.473 C 270.146 99.323,270.341 99.372,270.208 99.588 C 269.900 100.086,272.293 101.313,272.874 100.955 C 273.169 100.772,273.211 100.859,272.996 101.206 C 272.756 101.594,272.853 101.665,273.355 101.473 C 273.746 101.323,273.941 101.372,273.808 101.588 C 273.500 102.086,275.893 103.313,276.474 102.955 C 276.742 102.789,276.813 102.856,276.649 103.121 C 276.309 103.671,278.642 104.945,279.274 104.555 C 279.569 104.372,279.611 104.459,279.396 104.806 C 279.156 105.194,279.253 105.265,279.755 105.073 C 280.148 104.922,280.341 104.972,280.207 105.189 C 279.899 105.688,283.094 107.313,283.676 106.953 C 283.942 106.789,284.012 106.857,283.849 107.121 C 283.509 107.671,285.842 108.945,286.474 108.555 C 286.743 108.388,286.813 108.456,286.648 108.723 C 286.306 109.275,289.438 110.947,290.076 110.553 C 290.343 110.388,290.412 110.457,290.248 110.723 C 289.906 111.275,293.038 112.947,293.676 112.553 C 293.969 112.372,294.010 112.459,293.796 112.806 C 293.556 113.194,293.653 113.265,294.155 113.073 C 294.546 112.923,294.741 112.972,294.608 113.188 C 294.300 113.686,296.693 114.913,297.274 114.555 C 297.542 114.389,297.613 114.456,297.449 114.721 C 297.109 115.271,299.442 116.545,300.074 116.155 C 300.343 115.988,300.413 116.056,300.248 116.323 C 299.906 116.875,303.038 118.547,303.676 118.153 C 303.943 117.988,304.012 118.057,303.848 118.323 C 303.506 118.875,306.638 120.547,307.276 120.153 C 307.569 119.972,307.610 120.059,307.396 120.406 C 307.156 120.794,307.253 120.865,307.755 120.673 C 308.143 120.524,308.341 120.572,308.210 120.785 C 307.901 121.283,309.491 122.114,310.070 121.757 C 310.369 121.572,310.412 121.657,310.196 122.006 C 309.956 122.394,310.053 122.465,310.555 122.273 C 310.946 122.123,311.141 122.172,311.008 122.388 C 310.700 122.886,313.093 124.113,313.674 123.755 C 313.969 123.572,314.011 123.659,313.796 124.006 C 313.556 124.394,313.653 124.465,314.155 124.273 C 314.546 124.123,314.741 124.172,314.608 124.388 C 314.300 124.886,316.693 126.113,317.274 125.755 C 317.542 125.589,317.613 125.656,317.449 125.921 C 317.109 126.471,319.442 127.745,320.074 127.355 C 320.369 127.172,320.411 127.259,320.196 127.606 C 319.956 127.994,320.053 128.065,320.555 127.873 C 320.946 127.723,321.141 127.772,321.008 127.988 C 320.700 128.486,323.093 129.713,323.674 129.355 C 323.969 129.172,324.011 129.259,323.796 129.606 C 323.556 129.994,323.653 130.065,324.155 129.873 C 324.546 129.723,324.741 129.772,324.608 129.988 C 324.300 130.486,326.693 131.713,327.274 131.355 C 327.569 131.172,327.611 131.259,327.396 131.606 C 327.156 131.994,327.253 132.065,327.755 131.873 C 328.146 131.723,328.341 131.772,328.208 131.988 C 327.900 132.486,330.293 133.713,330.874 133.355 C 331.169 133.172,331.211 133.259,330.996 133.606 C 330.756 133.994,330.853 134.065,331.355 133.873 C 331.743 133.724,331.941 133.772,331.810 133.985 C 331.501 134.483,333.091 135.314,333.670 134.957 C 333.969 134.772,334.012 134.857,333.796 135.206 C 333.556 135.594,333.653 135.665,334.155 135.473 C 334.548 135.322,334.741 135.372,334.607 135.589 C 334.299 136.088,337.494 137.713,338.076 137.353 C 338.342 137.189,338.412 137.257,338.249 137.521 C 337.909 138.071,340.242 139.345,340.874 138.955 C 341.143 138.788,341.213 138.856,341.048 139.123 C 340.706 139.675,343.838 141.347,344.476 140.953 C 344.741 140.789,344.812 140.856,344.651 141.118 C 344.500 141.361,344.743 141.755,345.189 141.994 L 346.000 142.428 346.000 232.000 L 346.000 321.572 345.189 322.006 C 344.743 322.245,344.500 322.639,344.651 322.882 C 344.815 323.148,344.740 323.210,344.463 323.039 C 343.875 322.676,341.563 324.017,341.884 324.535 C 342.016 324.749,341.921 324.798,341.674 324.645 C 341.042 324.255,338.709 325.529,339.049 326.079 C 339.213 326.344,339.142 326.411,338.874 326.245 C 338.293 325.887,335.900 327.114,336.208 327.612 C 336.341 327.828,336.146 327.877,335.755 327.727 C 335.253 327.535,335.156 327.606,335.396 327.994 C 335.611 328.341,335.569 328.428,335.274 328.245 C 334.642 327.855,332.309 329.129,332.649 329.679 C 332.813 329.945,332.742 330.011,332.470 329.843 C 331.891 329.486,330.301 330.317,330.610 330.815 C 330.741 331.028,330.543 331.076,330.155 330.927 C 329.653 330.735,329.556 330.806,329.796 331.194 C 330.011 331.541,329.969 331.628,329.674 331.445 C 329.042 331.055,326.709 332.329,327.049 332.879 C 327.213 333.144,327.142 333.211,326.874 333.045 C 326.242 332.655,323.909 333.929,324.249 334.479 C 324.413 334.744,324.342 334.811,324.074 334.645 C 323.442 334.255,321.109 335.529,321.449 336.079 C 321.613 336.344,321.542 336.411,321.274 336.245 C 320.642 335.855,318.309 337.129,318.649 337.679 C 318.813 337.944,318.742 338.011,318.474 337.845 C 317.842 337.455,315.509 338.729,315.849 339.279 C 316.012 339.543,315.942 339.611,315.676 339.447 C 315.038 339.053,311.906 340.725,312.248 341.277 C 312.413 341.544,312.343 341.612,312.074 341.445 C 311.442 341.055,309.109 342.329,309.449 342.879 C 309.613 343.144,309.542 343.211,309.274 343.045 C 308.642 342.655,306.309 343.929,306.649 344.479 C 306.813 344.744,306.742 344.811,306.474 344.645 C 305.842 344.255,303.509 345.529,303.849 346.079 C 304.013 346.344,303.942 346.411,303.674 346.245 C 303.093 345.887,300.700 347.114,301.008 347.612 C 301.141 347.828,300.946 347.877,300.555 347.727 C 300.053 347.535,299.956 347.606,300.196 347.994 C 300.411 348.341,300.369 348.428,300.074 348.245 C 299.442 347.855,297.109 349.129,297.449 349.679 C 297.613 349.944,297.542 350.011,297.274 349.845 C 296.642 349.455,294.309 350.729,294.649 351.279 C 294.813 351.544,294.742 351.611,294.474 351.445 C 293.842 351.055,291.509 352.329,291.849 352.879 C 292.013 353.144,291.942 353.211,291.674 353.045 C 291.042 352.655,288.709 353.929,289.049 354.479 C 289.217 354.751,289.141 354.811,288.853 354.633 C 288.267 354.271,283.097 357.109,283.412 357.620 C 283.540 357.827,283.338 357.874,282.955 357.727 C 282.453 357.535,282.356 357.606,282.596 357.994 C 282.811 358.341,282.769 358.428,282.474 358.245 C 281.842 357.855,279.509 359.129,279.849 359.679 C 280.013 359.944,279.942 360.011,279.674 359.845 C 279.042 359.455,276.709 360.729,277.049 361.279 C 277.213 361.544,277.142 361.611,276.874 361.445 C 276.242 361.055,273.909 362.329,274.249 362.879 C 274.412 363.143,274.342 363.211,274.076 363.047 C 273.438 362.653,270.306 364.325,270.648 364.877 C 270.813 365.145,270.743 365.212,270.470 365.043 C 269.891 364.686,268.301 365.517,268.610 366.015 C 268.741 366.228,268.543 366.276,268.155 366.127 C 267.653 365.935,267.556 366.006,267.796 366.394 C 268.011 366.741,267.969 366.828,267.674 366.645 C 267.042 366.255,264.709 367.529,265.049 368.079 C 265.213 368.345,265.142 368.411,264.870 368.243 C 264.291 367.886,262.701 368.717,263.010 369.215 C 263.141 369.428,262.943 369.476,262.555 369.327 C 262.053 369.135,261.956 369.206,262.196 369.594 C 262.411 369.941,262.369 370.028,262.074 369.845 C 261.493 369.487,259.100 370.714,259.408 371.212 C 259.541 371.428,259.346 371.477,258.955 371.327 C 258.453 371.135,258.356 371.206,258.596 371.594 C 258.812 371.943,258.769 372.028,258.470 371.843 C 257.891 371.486,256.301 372.317,256.610 372.815 C 256.741 373.028,256.543 373.076,256.155 372.927 C 255.653 372.735,255.556 372.806,255.796 373.194 C 256.011 373.541,255.969 373.628,255.674 373.445 C 255.042 373.055,252.709 374.329,253.049 374.879 C 253.213 375.145,253.142 375.211,252.870 375.043 C 252.291 374.686,250.701 375.517,251.010 376.015 C 251.141 376.228,250.943 376.276,250.555 376.127 C 250.053 375.935,249.956 376.006,250.196 376.394 C 250.411 376.741,250.369 376.828,250.074 376.645 C 249.442 376.255,247.109 377.529,247.449 378.079 C 247.613 378.344,247.542 378.411,247.274 378.245 C 246.642 377.855,244.309 379.129,244.649 379.679 C 244.813 379.944,244.742 380.011,244.474 379.845 C 243.893 379.487,241.500 380.714,241.808 381.212 C 241.941 381.428,241.746 381.477,241.355 381.327 C 240.853 381.135,240.756 381.206,240.996 381.594 C 241.212 381.943,241.169 382.028,240.870 381.843 C 240.291 381.486,238.701 382.317,239.010 382.815 C 239.141 383.028,238.943 383.076,238.555 382.927 C 238.053 382.735,237.956 382.806,238.196 383.194 C 238.411 383.541,238.369 383.628,238.074 383.445 C 237.442 383.055,235.109 384.329,235.449 384.879 C 235.615 385.148,235.542 385.211,235.263 385.039 C 234.675 384.676,232.363 386.017,232.684 386.535 C 232.816 386.749,232.720 386.797,232.470 386.643 C 231.891 386.286,230.301 387.117,230.610 387.615 C 230.741 387.828,230.543 387.876,230.155 387.727 C 229.653 387.535,229.556 387.606,229.796 387.994 C 230.011 388.341,229.969 388.428,229.674 388.245 C 229.042 387.855,226.709 389.129,227.049 389.679 C 227.213 389.944,227.142 390.011,226.874 389.845 C 226.293 389.487,223.900 390.714,224.208 391.212 C 224.341 391.428,224.146 391.477,223.755 391.327 C 223.253 391.135,223.156 391.206,223.396 391.594 C 223.612 391.943,223.569 392.028,223.270 391.843 C 222.691 391.486,221.101 392.317,221.410 392.815 C 221.541 393.028,221.343 393.076,220.955 392.927 C 220.453 392.735,220.356 392.806,220.596 393.194 C 220.812 393.543,220.769 393.628,220.470 393.443 C 219.891 393.086,218.301 393.917,218.610 394.415 C 218.741 394.628,218.543 394.676,218.155 394.527 C 217.653 394.335,217.556 394.406,217.796 394.794 C 218.011 395.141,217.969 395.228,217.674 395.045 C 217.042 394.655,214.709 395.929,215.049 396.479 C 215.213 396.744,215.142 396.811,214.874 396.645 C 214.242 396.255,211.909 397.529,212.249 398.079 C 212.413 398.344,212.342 398.411,212.074 398.245 C 211.493 397.887,209.100 399.114,209.408 399.612 C 209.541 399.828,209.346 399.877,208.955 399.727 C 208.453 399.535,208.356 399.606,208.596 399.994 C 208.811 400.341,208.769 400.428,208.474 400.245 C 207.842 399.855,205.509 401.129,205.849 401.679 C 206.013 401.944,205.942 402.011,205.674 401.845 C 205.042 401.455,202.709 402.729,203.049 403.279 C 203.213 403.544,203.142 403.611,202.874 403.445 C 202.242 403.055,199.909 404.329,200.249 404.879 C 200.413 405.145,200.342 405.211,200.070 405.043 C 199.821 404.889,199.298 404.934,198.908 405.142 C 198.232 405.504,198.205 403.646,198.304 364.535 C 198.362 341.551,198.256 323.642,198.062 323.762 C 197.871 323.880,197.786 323.576,197.872 323.088 C 198.047 322.094,196.668 319.600,195.944 319.600 C 195.674 319.600,195.798 319.981,196.238 320.500 L 197.000 321.400 196.109 320.647 C 195.620 320.232,195.310 319.746,195.421 319.567 C 195.707 319.103,194.076 318.306,193.530 318.643 C 193.259 318.811,193.186 318.746,193.349 318.482 C 193.687 317.935,192.152 317.059,191.530 317.443 C 191.258 317.611,191.187 317.545,191.351 317.279 C 191.691 316.729,189.358 315.455,188.726 315.845 C 188.459 316.011,188.387 315.944,188.549 315.682 C 188.887 315.135,187.352 314.259,186.730 314.643 C 186.459 314.811,186.386 314.746,186.549 314.482 C 186.887 313.935,185.352 313.059,184.730 313.443 C 184.431 313.628,184.388 313.543,184.604 313.194 C 184.844 312.806,184.747 312.735,184.245 312.927 C 183.857 313.076,183.659 313.028,183.790 312.815 C 184.099 312.317,182.509 311.486,181.930 311.843 C 181.659 312.011,181.586 311.946,181.749 311.682 C 182.087 311.135,180.552 310.259,179.930 310.643 C 179.658 310.811,179.587 310.745,179.751 310.479 C 180.091 309.929,177.758 308.655,177.126 309.045 C 176.859 309.211,176.787 309.144,176.949 308.882 C 177.287 308.335,175.752 307.459,175.130 307.843 C 174.880 307.997,174.784 307.949,174.916 307.735 C 175.237 307.217,172.925 305.876,172.337 306.239 C 172.060 306.410,171.985 306.348,172.149 306.082 C 172.487 305.535,170.952 304.659,170.330 305.043 C 170.059 305.211,169.986 305.146,170.149 304.882 C 170.487 304.335,168.952 303.459,168.330 303.843 C 168.031 304.028,167.988 303.943,168.204 303.594 C 168.444 303.206,168.347 303.135,167.845 303.327 C 167.457 303.476,167.259 303.428,167.390 303.215 C 167.699 302.717,166.109 301.886,165.530 302.243 C 165.259 302.411,165.186 302.346,165.349 302.082 C 165.687 301.535,164.152 300.659,163.530 301.043 C 163.258 301.211,163.187 301.145,163.351 300.879 C 163.691 300.329,161.358 299.055,160.726 299.445 C 160.459 299.611,160.387 299.544,160.549 299.282 C 160.887 298.735,159.352 297.859,158.730 298.243 C 158.464 298.408,158.386 298.346,158.542 298.093 C 158.884 297.540,154.571 295.047,153.943 295.435 C 153.660 295.610,153.584 295.550,153.749 295.282 C 154.087 294.735,152.552 293.859,151.930 294.243 C 151.680 294.397,151.585 294.348,151.717 294.134 C 152.049 293.597,147.764 291.051,147.159 291.425 C 146.830 291.628,146.781 291.554,147.004 291.194 C 147.244 290.806,147.147 290.735,146.645 290.927 C 146.257 291.076,146.059 291.028,146.190 290.815 C 146.499 290.317,144.909 289.486,144.330 289.843 C 144.059 290.011,143.986 289.946,144.149 289.682 C 144.487 289.135,142.952 288.259,142.330 288.643 C 142.059 288.811,141.986 288.746,142.149 288.482 C 142.487 287.935,140.952 287.059,140.330 287.443 C 140.058 287.611,139.987 287.545,140.151 287.279 C 140.491 286.729,138.158 285.455,137.526 285.845 C 137.259 286.011,137.187 285.944,137.349 285.682 C 137.687 285.135,136.152 284.259,135.530 284.643 C 135.280 284.797,135.184 284.749,135.316 284.535 C 135.637 284.017,133.325 282.676,132.737 283.039 C 132.460 283.210,132.385 283.148,132.549 282.882 C 132.887 282.335,131.352 281.459,130.730 281.843 C 130.459 282.011,130.386 281.946,130.549 281.682 C 130.887 281.135,129.352 280.259,128.730 280.643 C 128.458 280.811,128.387 280.745,128.551 280.479 C 128.891 279.929,126.558 278.655,125.926 279.045 C 125.659 279.211,125.587 279.144,125.749 278.882 C 126.087 278.335,124.552 277.459,123.930 277.843 C 123.658 278.011,123.587 277.945,123.751 277.679 C 124.091 277.129,121.758 275.855,121.126 276.245 C 120.859 276.411,120.787 276.344,120.949 276.082 C 121.100 275.839,120.856 275.444,120.408 275.204 C 119.596 274.770,119.594 274.653,119.603 225.164 C 119.609 193.435,119.751 175.646,119.998 175.799 C 120.528 176.126,122.078 175.249,121.790 174.785 C 121.659 174.572,121.857 174.524,122.245 174.673 C 122.747 174.865,122.844 174.794,122.604 174.406 C 122.388 174.057,122.431 173.972,122.730 174.157 C 123.352 174.541,124.887 173.665,124.549 173.118 C 124.387 172.856,124.459 172.789,124.726 172.955 C 125.358 173.345,127.691 172.071,127.351 171.521 C 127.187 171.255,127.258 171.189,127.530 171.357 C 128.152 171.741,129.687 170.865,129.349 170.318 C 129.187 170.056,129.259 169.989,129.526 170.155 C 130.158 170.545,132.491 169.271,132.151 168.721 C 131.987 168.455,132.058 168.389,132.330 168.557 C 132.952 168.941,134.487 168.065,134.149 167.518 C 133.987 167.256,134.059 167.189,134.326 167.355 C 134.958 167.745,137.291 166.471,136.951 165.921 C 136.787 165.655,136.858 165.589,137.130 165.757 C 137.752 166.141,139.287 165.265,138.949 164.718 C 138.785 164.452,138.860 164.390,139.137 164.561 C 139.725 164.924,142.037 163.583,141.716 163.065 C 141.584 162.851,141.680 162.803,141.930 162.957 C 142.552 163.341,144.087 162.465,143.749 161.918 C 143.588 161.656,143.659 161.589,143.924 161.753 C 144.562 162.147,147.694 160.475,147.352 159.923 C 147.187 159.655,147.257 159.588,147.530 159.757 C 148.152 160.141,149.687 159.265,149.349 158.718 C 149.186 158.454,149.259 158.389,149.530 158.557 C 150.152 158.941,151.687 158.065,151.349 157.518 C 151.187 157.256,151.259 157.189,151.526 157.355 C 152.158 157.745,154.491 156.471,154.151 155.921 C 153.987 155.655,154.058 155.589,154.330 155.757 C 154.909 156.114,156.499 155.283,156.190 154.785 C 156.059 154.572,156.257 154.524,156.645 154.673 C 157.147 154.865,157.244 154.794,157.004 154.406 C 156.788 154.057,156.831 153.972,157.130 154.157 C 157.752 154.541,159.287 153.665,158.949 153.118 C 158.787 152.856,158.859 152.789,159.126 152.955 C 159.758 153.345,162.091 152.071,161.751 151.521 C 161.587 151.255,161.658 151.189,161.930 151.357 C 162.552 151.741,164.087 150.865,163.749 150.318 C 163.586 150.054,163.659 149.989,163.930 150.157 C 164.509 150.514,166.099 149.683,165.790 149.185 C 165.663 148.978,165.804 148.903,166.104 149.019 C 166.830 149.297,167.948 148.011,168.620 146.126 C 169.647 143.249,169.397 95.184,168.359 95.825 C 168.167 95.944,168.128 95.733,168.273 95.355 C 168.450 94.893,168.385 94.762,168.073 94.955 C 167.775 95.139,167.690 95.030,167.836 94.651 C 168.122 93.905,166.550 92.839,164.728 92.543 C 163.146 92.286,159.868 93.063,160.209 93.614 C 160.341 93.828,160.144 93.877,159.755 93.727 C 159.253 93.535,159.156 93.606,159.396 93.994 C 159.611 94.341,159.569 94.428,159.274 94.245 C 158.642 93.855,156.309 95.129,156.649 95.679 C 156.813 95.945,156.742 96.011,156.470 95.843 C 155.848 95.459,154.313 96.335,154.651 96.882 C 154.813 97.144,154.741 97.211,154.474 97.045 C 153.842 96.655,151.509 97.929,151.849 98.479 C 152.013 98.744,151.942 98.811,151.674 98.645 C 151.042 98.255,148.709 99.529,149.049 100.079 C 149.213 100.345,149.142 100.411,148.870 100.243 C 148.248 99.859,146.713 100.735,147.051 101.282 C 147.213 101.544,147.141 101.611,146.874 101.445 C 146.242 101.055,143.909 102.329,144.249 102.879 C 144.413 103.145,144.342 103.211,144.070 103.043 C 143.448 102.659,141.913 103.535,142.251 104.082 C 142.413 104.344,142.341 104.411,142.074 104.245 C 141.442 103.855,139.109 105.129,139.449 105.679 C 139.613 105.945,139.542 106.011,139.270 105.843 C 138.691 105.486,137.101 106.317,137.410 106.815 C 137.541 107.028,137.343 107.076,136.955 106.927 C 136.453 106.735,136.356 106.806,136.596 107.194 C 136.812 107.543,136.769 107.628,136.470 107.443 C 135.848 107.059,134.313 107.935,134.651 108.482 C 134.813 108.744,134.741 108.811,134.474 108.645 C 133.842 108.255,131.509 109.529,131.849 110.079 C 132.013 110.345,131.942 110.411,131.670 110.243 C 131.048 109.859,129.513 110.735,129.851 111.282 C 130.013 111.544,129.941 111.611,129.674 111.445 C 129.042 111.055,126.709 112.329,127.049 112.879 C 127.213 113.145,127.142 113.211,126.870 113.043 C 126.291 112.686,124.701 113.517,125.010 114.015 C 125.141 114.228,124.943 114.276,124.555 114.127 C 124.053 113.935,123.956 114.006,124.196 114.394 C 124.412 114.743,124.369 114.828,124.070 114.643 C 123.448 114.259,121.913 115.135,122.251 115.682 C 122.415 115.948,122.340 116.010,122.063 115.839 C 121.479 115.478,117.167 118.024,117.487 118.540 C 117.617 118.751,117.520 118.797,117.270 118.643 C 116.691 118.286,115.101 119.117,115.410 119.615 C 115.541 119.828,115.343 119.876,114.955 119.727 C 114.453 119.535,114.356 119.606,114.596 119.994 C 114.812 120.343,114.769 120.428,114.470 120.243 C 113.891 119.886,112.301 120.717,112.610 121.215 C 112.741 121.428,112.543 121.476,112.155 121.327 C 111.653 121.135,111.556 121.206,111.796 121.594 C 112.012 121.943,111.969 122.028,111.670 121.843 C 111.048 121.459,109.513 122.335,109.851 122.882 C 110.014 123.146,109.941 123.211,109.670 123.043 C 109.091 122.686,107.501 123.517,107.810 124.015 C 107.941 124.228,107.743 124.276,107.355 124.127 C 106.853 123.935,106.756 124.006,106.996 124.394 C 107.212 124.743,107.169 124.828,106.870 124.643 C 106.248 124.259,104.713 125.135,105.051 125.682 C 105.214 125.946,105.141 126.011,104.870 125.843 C 104.291 125.486,102.701 126.317,103.010 126.815 C 103.141 127.028,102.943 127.076,102.555 126.927 C 102.053 126.735,101.956 126.806,102.196 127.194 C 102.412 127.543,102.369 127.628,102.070 127.443 C 101.448 127.059,99.913 127.935,100.251 128.482 C 100.413 128.744,100.341 128.811,100.074 128.645 C 99.442 128.255,97.109 129.529,97.449 130.079 C 97.613 130.344,97.542 130.411,97.274 130.245 C 96.642 129.855,94.309 131.129,94.649 131.679 C 94.813 131.945,94.742 132.011,94.470 131.843 C 93.848 131.459,92.313 132.335,92.651 132.882 C 92.816 133.150,92.740 133.210,92.457 133.035 C 91.829 132.647,87.516 135.140,87.858 135.693 C 88.013 135.945,87.936 136.008,87.674 135.845 C 87.042 135.455,84.709 136.729,85.049 137.279 C 85.213 137.545,85.142 137.611,84.870 137.443 C 84.248 137.059,82.713 137.935,83.051 138.482 C 83.213 138.744,83.141 138.811,82.874 138.645 C 82.242 138.255,79.909 139.529,80.249 140.079 C 80.413 140.344,80.342 140.411,80.074 140.245 C 79.442 139.855,77.109 141.129,77.449 141.679 C 77.613 141.945,77.542 142.011,77.270 141.843 C 76.648 141.459,75.113 142.335,75.451 142.882 C 75.613 143.144,75.541 143.211,75.274 143.045 C 74.693 142.687,72.300 143.914,72.608 144.412 C 72.736 144.621,72.561 144.683,72.218 144.551 C 71.294 144.197,68.575 147.103,68.046 149.009 C 67.426 151.243,67.419 299.920,68.039 302.200 C 68.530 304.004,70.306 306.122,71.080 305.825 C 71.361 305.717,71.548 305.847,71.495 306.114 C 71.443 306.381,71.713 306.575,72.096 306.545 C 72.478 306.515,72.697 306.642,72.583 306.828 C 72.292 307.298,74.721 308.496,75.274 308.155 C 75.541 307.989,75.613 308.056,75.451 308.318 C 75.113 308.865,76.648 309.741,77.270 309.357 C 77.569 309.172,77.612 309.257,77.396 309.606 C 77.156 309.994,77.253 310.065,77.755 309.873 C 78.143 309.724,78.341 309.772,78.210 309.985 C 77.901 310.483,79.491 311.314,80.070 310.957 C 80.341 310.789,80.414 310.854,80.251 311.118 C 79.913 311.665,81.448 312.541,82.070 312.157 C 82.342 311.989,82.413 312.055,82.249 312.321 C 81.909 312.871,84.242 314.145,84.874 313.755 C 85.141 313.589,85.213 313.656,85.051 313.918 C 84.713 314.465,86.248 315.341,86.870 314.957 C 87.142 314.789,87.213 314.855,87.049 315.121 C 86.709 315.671,89.042 316.945,89.674 316.555 C 89.941 316.389,90.013 316.456,89.851 316.718 C 89.513 317.265,91.048 318.141,91.670 317.757 C 91.941 317.589,92.014 317.654,91.851 317.918 C 91.513 318.465,93.048 319.341,93.670 318.957 C 93.942 318.789,94.013 318.855,93.849 319.121 C 93.509 319.671,95.842 320.945,96.474 320.555 C 96.741 320.389,96.813 320.456,96.651 320.718 C 96.313 321.265,97.848 322.141,98.470 321.757 C 98.720 321.603,98.816 321.651,98.684 321.865 C 98.363 322.383,100.675 323.724,101.263 323.361 C 101.540 323.190,101.615 323.252,101.451 323.518 C 101.113 324.065,102.648 324.941,103.270 324.557 C 103.541 324.389,103.614 324.454,103.451 324.718 C 103.113 325.265,104.648 326.141,105.270 325.757 C 105.569 325.572,105.612 325.657,105.396 326.006 C 105.156 326.394,105.253 326.465,105.755 326.273 C 106.143 326.124,106.341 326.172,106.210 326.385 C 105.901 326.883,107.491 327.714,108.070 327.357 C 108.341 327.189,108.414 327.254,108.251 327.518 C 107.913 328.065,109.448 328.941,110.070 328.557 C 110.341 328.389,110.414 328.454,110.251 328.718 C 109.913 329.265,111.448 330.141,112.070 329.757 C 112.369 329.572,112.412 329.657,112.196 330.006 C 111.956 330.394,112.053 330.465,112.555 330.273 C 112.943 330.124,113.141 330.172,113.010 330.385 C 112.701 330.883,114.291 331.714,114.870 331.357 C 115.169 331.172,115.212 331.257,114.996 331.606 C 114.756 331.994,114.853 332.065,115.355 331.873 C 115.743 331.724,115.941 331.772,115.810 331.985 C 115.501 332.483,117.091 333.314,117.670 332.957 C 117.941 332.789,118.014 332.854,117.851 333.118 C 117.513 333.665,119.048 334.541,119.670 334.157 C 119.941 333.989,120.014 334.054,119.851 334.318 C 119.513 334.865,121.048 335.741,121.670 335.357 C 121.941 335.189,122.014 335.254,121.851 335.518 C 121.513 336.065,123.048 336.941,123.670 336.557 C 123.942 336.389,124.013 336.455,123.849 336.721 C 123.509 337.271,125.842 338.545,126.474 338.155 C 126.721 338.002,126.816 338.051,126.684 338.265 C 126.357 338.794,128.677 340.118,129.301 339.759 C 129.575 339.601,129.664 339.622,129.498 339.805 C 129.101 340.242,132.446 342.459,133.121 342.205 C 133.439 342.085,133.530 342.190,133.355 342.473 C 133.162 342.785,133.293 342.850,133.755 342.673 C 134.143 342.524,134.341 342.572,134.210 342.785 C 133.901 343.283,135.491 344.114,136.070 343.757 C 136.341 343.589,136.414 343.654,136.251 343.918 C 135.913 344.465,137.448 345.341,138.070 344.957 C 138.369 344.772,138.412 344.857,138.196 345.206 C 137.956 345.594,138.053 345.665,138.555 345.473 C 138.943 345.324,139.141 345.372,139.010 345.585 C 138.701 346.083,140.291 346.914,140.870 346.557 C 141.141 346.389,141.214 346.454,141.051 346.718 C 140.713 347.265,142.248 348.141,142.870 347.757 C 143.142 347.589,143.213 347.655,143.049 347.921 C 142.709 348.471,145.042 349.745,145.674 349.355 C 145.957 349.179,146.012 349.257,145.822 349.565 C 145.634 349.869,145.799 350.127,146.260 350.247 C 146.975 350.434,146.996 351.839,146.896 391.664 C 146.794 432.497,146.901 436.480,148.080 435.750 C 148.358 435.579,148.410 435.660,148.220 435.968 C 147.637 436.910,151.867 440.377,152.855 439.766 C 153.140 439.590,153.217 439.649,153.051 439.918 C 152.713 440.465,154.248 441.341,154.870 440.957 C 155.141 440.789,155.214 440.854,155.051 441.118 C 154.713 441.665,156.248 442.541,156.870 442.157 C 157.141 441.989,157.214 442.054,157.051 442.318 C 156.706 442.875,158.247 443.734,158.908 443.354 C 159.179 443.199,159.266 443.219,159.103 443.400 C 158.691 443.855,160.294 444.913,160.863 444.561 C 161.140 444.390,161.215 444.452,161.051 444.718 C 160.713 445.265,162.248 446.141,162.870 445.757 C 163.141 445.589,163.214 445.654,163.051 445.918 C 162.713 446.465,164.248 447.341,164.870 446.957 C 165.141 446.789,165.214 446.854,165.051 447.118 C 164.713 447.665,166.248 448.541,166.870 448.157 C 167.141 447.989,167.214 448.054,167.051 448.318 C 166.713 448.865,168.248 449.741,168.870 449.357 C 169.141 449.189,169.214 449.254,169.051 449.518 C 168.713 450.065,170.248 450.941,170.870 450.557 C 171.141 450.389,171.214 450.454,171.051 450.718 C 170.713 451.265,172.248 452.141,172.870 451.757 C 173.141 451.589,173.214 451.654,173.051 451.918 C 172.713 452.465,174.248 453.341,174.870 452.957 C 175.141 452.789,175.214 452.854,175.051 453.118 C 174.713 453.665,176.248 454.541,176.870 454.157 C 177.141 453.989,177.214 454.054,177.051 454.318 C 176.713 454.865,178.248 455.741,178.870 455.357 C 179.135 455.193,179.214 455.254,179.060 455.503 C 178.738 456.025,182.314 458.100,182.906 457.735 C 183.142 457.589,183.205 457.668,183.051 457.918 C 182.713 458.465,184.248 459.341,184.870 458.957 C 185.141 458.789,185.214 458.854,185.051 459.118 C 184.713 459.665,186.248 460.541,186.870 460.157 C 187.141 459.989,187.214 460.054,187.051 460.318 C 186.713 460.865,188.248 461.741,188.870 461.357 C 189.141 461.189,189.214 461.254,189.051 461.518 C 188.713 462.065,190.248 462.941,190.870 462.557 C 191.169 462.372,191.212 462.457,190.996 462.806 C 190.759 463.190,190.851 463.266,191.330 463.082 C 191.726 462.930,191.952 463.014,191.895 463.292 C 191.843 463.547,192.766 464.022,193.947 464.348 C 196.320 465.003,200.706 464.305,200.505 463.304 C 200.447 463.015,200.668 462.928,201.070 463.082 C 201.549 463.266,201.641 463.190,201.404 462.806 C 201.188 462.457,201.231 462.372,201.530 462.557 C 202.109 462.914,203.699 462.083,203.390 461.585 C 203.259 461.372,203.457 461.324,203.845 461.473 C 204.347 461.665,204.444 461.594,204.204 461.206 C 203.989 460.859,204.031 460.772,204.326 460.955 C 204.958 461.345,207.291 460.071,206.951 459.521 C 206.787 459.256,206.858 459.189,207.126 459.355 C 207.758 459.745,210.091 458.471,209.751 457.921 C 209.587 457.656,209.658 457.589,209.926 457.755 C 210.558 458.145,212.891 456.871,212.551 456.321 C 212.387 456.056,212.458 455.989,212.726 456.155 C 213.358 456.545,215.691 455.271,215.351 454.721 C 215.187 454.456,215.258 454.389,215.526 454.555 C 216.107 454.913,218.500 453.686,218.192 453.188 C 218.059 452.972,218.254 452.923,218.645 453.073 C 219.147 453.265,219.244 453.194,219.004 452.806 C 218.789 452.459,218.831 452.372,219.126 452.555 C 219.758 452.945,222.091 451.671,221.751 451.121 C 221.587 450.856,221.658 450.789,221.926 450.955 C 222.558 451.345,224.891 450.071,224.551 449.521 C 224.387 449.256,224.458 449.189,224.726 449.355 C 225.358 449.745,227.691 448.471,227.351 447.921 C 227.187 447.656,227.258 447.589,227.526 447.755 C 228.158 448.145,230.491 446.871,230.151 446.321 C 229.988 446.057,230.058 445.989,230.324 446.153 C 230.962 446.547,234.094 444.875,233.752 444.323 C 233.587 444.056,233.657 443.988,233.926 444.155 C 234.558 444.545,236.891 443.271,236.551 442.721 C 236.387 442.456,236.458 442.389,236.726 442.555 C 237.358 442.945,239.691 441.671,239.351 441.121 C 239.187 440.856,239.258 440.789,239.526 440.955 C 240.158 441.345,242.491 440.071,242.151 439.521 C 241.987 439.256,242.058 439.189,242.326 439.355 C 242.958 439.745,245.291 438.471,244.951 437.921 C 244.787 437.656,244.858 437.589,245.126 437.755 C 245.707 438.113,248.100 436.886,247.792 436.388 C 247.659 436.172,247.854 436.123,248.245 436.273 C 248.747 436.465,248.844 436.394,248.604 436.006 C 248.389 435.659,248.431 435.572,248.726 435.755 C 249.358 436.145,251.691 434.871,251.351 434.321 C 251.187 434.056,251.258 433.989,251.526 434.155 C 252.158 434.545,254.491 433.271,254.151 432.721 C 253.987 432.456,254.058 432.389,254.326 432.555 C 254.958 432.945,257.291 431.671,256.951 431.121 C 256.787 430.856,256.858 430.789,257.126 430.955 C 257.707 431.313,260.100 430.086,259.792 429.588 C 259.659 429.372,259.854 429.323,260.245 429.473 C 260.747 429.665,260.844 429.594,260.604 429.206 C 260.389 428.859,260.431 428.772,260.726 428.955 C 261.358 429.345,263.691 428.071,263.351 427.521 C 263.187 427.256,263.258 427.189,263.526 427.355 C 264.158 427.745,266.491 426.471,266.151 425.921 C 265.987 425.655,266.058 425.589,266.330 425.757 C 266.909 426.114,268.499 425.283,268.190 424.785 C 268.059 424.572,268.257 424.524,268.645 424.673 C 269.147 424.865,269.244 424.794,269.004 424.406 C 268.789 424.059,268.831 423.972,269.126 424.155 C 269.758 424.545,272.091 423.271,271.751 422.721 C 271.587 422.456,271.658 422.389,271.926 422.555 C 272.507 422.913,274.900 421.686,274.592 421.188 C 274.459 420.972,274.654 420.923,275.045 421.073 C 275.547 421.265,275.644 421.194,275.404 420.806 C 275.188 420.457,275.231 420.372,275.530 420.557 C 276.152 420.941,277.687 420.065,277.349 419.518 C 277.187 419.256,277.259 419.189,277.526 419.355 C 278.107 419.713,280.500 418.486,280.192 417.988 C 280.059 417.772,280.254 417.723,280.645 417.873 C 281.147 418.065,281.244 417.994,281.004 417.606 C 280.789 417.259,280.831 417.172,281.126 417.355 C 281.758 417.745,284.091 416.471,283.751 415.921 C 283.587 415.655,283.658 415.589,283.930 415.757 C 284.509 416.114,286.099 415.283,285.790 414.785 C 285.659 414.572,285.857 414.524,286.245 414.673 C 286.747 414.865,286.844 414.794,286.604 414.406 C 286.389 414.059,286.431 413.972,286.726 414.155 C 287.358 414.545,289.691 413.271,289.351 412.721 C 289.187 412.456,289.258 412.389,289.526 412.555 C 290.158 412.945,292.491 411.671,292.151 411.121 C 291.988 410.857,292.058 410.789,292.324 410.953 C 292.962 411.347,296.094 409.675,295.752 409.123 C 295.587 408.855,295.657 408.788,295.930 408.957 C 296.509 409.314,298.099 408.483,297.790 407.985 C 297.659 407.772,297.857 407.724,298.245 407.873 C 298.747 408.065,298.844 407.994,298.604 407.606 C 298.388 407.257,298.431 407.172,298.730 407.357 C 299.309 407.714,300.899 406.883,300.590 406.385 C 300.459 406.172,300.657 406.124,301.045 406.273 C 301.547 406.465,301.644 406.394,301.404 406.006 C 301.189 405.659,301.231 405.572,301.526 405.755 C 302.158 406.145,304.491 404.871,304.151 404.321 C 303.987 404.056,304.058 403.989,304.326 404.155 C 304.907 404.513,307.300 403.286,306.992 402.788 C 306.859 402.572,307.054 402.523,307.445 402.673 C 307.947 402.865,308.044 402.794,307.804 402.406 C 307.588 402.057,307.631 401.972,307.930 402.157 C 308.552 402.541,310.087 401.665,309.749 401.118 C 309.587 400.856,309.659 400.789,309.926 400.955 C 310.507 401.313,312.900 400.086,312.592 399.588 C 312.459 399.372,312.654 399.323,313.045 399.473 C 313.547 399.665,313.644 399.594,313.404 399.206 C 313.189 398.859,313.231 398.772,313.526 398.955 C 314.158 399.345,316.491 398.071,316.151 397.521 C 315.987 397.256,316.058 397.189,316.326 397.355 C 316.958 397.745,319.291 396.471,318.951 395.921 C 318.787 395.656,318.858 395.589,319.126 395.755 C 319.707 396.113,322.100 394.886,321.792 394.388 C 321.659 394.172,321.854 394.123,322.245 394.273 C 322.747 394.465,322.844 394.394,322.604 394.006 C 322.385 393.652,322.431 393.572,322.743 393.765 C 323.319 394.121,327.695 391.677,327.383 391.173 C 327.260 390.973,327.467 390.928,327.845 391.073 C 328.347 391.265,328.444 391.194,328.204 390.806 C 327.989 390.459,328.031 390.372,328.326 390.555 C 328.958 390.945,331.291 389.671,330.951 389.121 C 330.787 388.856,330.858 388.789,331.126 388.955 C 331.758 389.345,334.091 388.071,333.751 387.521 C 333.587 387.256,333.658 387.189,333.926 387.355 C 334.558 387.745,336.891 386.471,336.551 385.921 C 336.387 385.656,336.458 385.589,336.726 385.755 C 337.358 386.145,339.691 384.871,339.351 384.321 C 339.187 384.056,339.258 383.989,339.526 384.155 C 340.158 384.545,342.491 383.271,342.151 382.721 C 341.987 382.456,342.058 382.389,342.326 382.555 C 342.907 382.913,345.300 381.686,344.992 381.188 C 344.859 380.972,345.054 380.923,345.445 381.073 C 345.947 381.265,346.044 381.194,345.804 380.806 C 345.589 380.459,345.631 380.372,345.926 380.555 C 346.558 380.945,348.891 379.671,348.551 379.121 C 348.387 378.856,348.458 378.789,348.726 378.955 C 349.358 379.345,351.691 378.071,351.351 377.521 C 351.187 377.256,351.258 377.189,351.526 377.355 C 352.158 377.745,354.491 376.471,354.151 375.921 C 353.987 375.656,354.058 375.589,354.326 375.755 C 354.958 376.145,357.291 374.871,356.951 374.321 C 356.787 374.056,356.858 373.989,357.126 374.155 C 357.758 374.545,360.091 373.271,359.751 372.721 C 359.588 372.457,359.658 372.389,359.924 372.553 C 360.562 372.947,363.694 371.275,363.352 370.723 C 363.187 370.456,363.257 370.388,363.526 370.555 C 364.158 370.945,366.491 369.671,366.151 369.121 C 365.987 368.856,366.058 368.789,366.326 368.955 C 366.958 369.345,369.291 368.071,368.951 367.521 C 368.787 367.256,368.858 367.189,369.126 367.355 C 369.758 367.745,372.091 366.471,371.751 365.921 C 371.587 365.656,371.658 365.589,371.926 365.755 C 372.507 366.113,374.900 364.886,374.592 364.388 C 374.459 364.172,374.654 364.123,375.045 364.273 C 375.547 364.465,375.644 364.394,375.404 364.006 C 375.188 363.657,375.231 363.572,375.530 363.757 C 376.109 364.114,377.699 363.283,377.390 362.785 C 377.259 362.572,377.457 362.524,377.845 362.673 C 378.347 362.865,378.444 362.794,378.204 362.406 C 377.989 362.059,378.031 361.972,378.326 362.155 C 378.958 362.545,381.291 361.271,380.951 360.721 C 380.787 360.456,380.858 360.389,381.126 360.555 C 381.758 360.945,384.091 359.671,383.751 359.121 C 383.585 358.852,383.658 358.789,383.937 358.961 C 384.525 359.324,386.837 357.983,386.516 357.465 C 386.384 357.251,386.479 357.202,386.726 357.355 C 387.358 357.745,389.691 356.471,389.351 355.921 C 389.188 355.657,389.258 355.589,389.524 355.753 C 390.106 356.113,393.301 354.488,392.993 353.989 C 392.864 353.780,393.022 353.710,393.345 353.834 C 394.366 354.226,397.053 351.406,397.554 349.418 C 398.487 345.713,398.130 113.625,397.192 114.205 C 397.017 114.313,396.959 114.079,397.062 113.686 C 397.429 112.281,393.877 109.134,392.726 109.845 C 392.458 110.011,392.387 109.944,392.551 109.679 C 392.891 109.129,390.558 107.855,389.926 108.245 C 389.631 108.428,389.589 108.341,389.804 107.994 C 390.044 107.606,389.947 107.535,389.445 107.727 C 389.054 107.877,388.859 107.828,388.992 107.612 C 389.300 107.114,386.907 105.887,386.326 106.245 C 386.031 106.428,385.989 106.341,386.204 105.994 C 386.444 105.606,386.347 105.535,385.845 105.727 C 385.454 105.877,385.259 105.828,385.392 105.612 C 385.700 105.114,383.307 103.887,382.726 104.245 C 382.457 104.412,382.387 104.344,382.552 104.077 C 382.894 103.525,379.762 101.853,379.124 102.247 C 378.831 102.428,378.790 102.341,379.004 101.994 C 379.244 101.606,379.147 101.535,378.645 101.727 C 378.254 101.877,378.059 101.828,378.192 101.612 C 378.500 101.114,376.107 99.887,375.526 100.245 C 375.258 100.411,375.187 100.344,375.351 100.079 C 375.691 99.529,373.358 98.255,372.726 98.645 C 372.457 98.812,372.387 98.744,372.552 98.477 C 372.894 97.925,369.762 96.253,369.124 96.647 C 368.831 96.828,368.790 96.741,369.004 96.394 C 369.244 96.006,369.147 95.935,368.645 96.127 C 368.254 96.277,368.059 96.228,368.192 96.012 C 368.500 95.514,366.107 94.287,365.526 94.645 C 365.231 94.828,365.189 94.741,365.404 94.394 C 365.644 94.006,365.547 93.935,365.045 94.127 C 364.654 94.277,364.459 94.228,364.592 94.012 C 364.900 93.514,362.507 92.287,361.926 92.645 C 361.658 92.811,361.587 92.744,361.751 92.479 C 362.091 91.929,359.758 90.655,359.126 91.045 C 358.857 91.212,358.787 91.144,358.952 90.877 C 359.294 90.325,356.162 88.653,355.524 89.047 C 355.231 89.228,355.190 89.141,355.404 88.794 C 355.644 88.406,355.547 88.335,355.045 88.527 C 354.654 88.677,354.459 88.628,354.592 88.412 C 354.900 87.914,352.507 86.687,351.926 87.045 C 351.631 87.228,351.589 87.141,351.804 86.794 C 352.044 86.406,351.947 86.335,351.445 86.527 C 351.054 86.677,350.859 86.628,350.992 86.412 C 351.300 85.914,348.907 84.687,348.326 85.045 C 348.058 85.211,347.987 85.144,348.151 84.879 C 348.491 84.329,346.158 83.055,345.526 83.445 C 345.231 83.628,345.189 83.541,345.404 83.194 C 345.644 82.806,345.547 82.735,345.045 82.927 C 344.654 83.077,344.459 83.028,344.592 82.812 C 344.900 82.314,342.507 81.087,341.926 81.445 C 341.631 81.628,341.589 81.541,341.804 81.194 C 342.044 80.806,341.947 80.735,341.445 80.927 C 341.054 81.077,340.859 81.028,340.992 80.812 C 341.300 80.314,338.907 79.087,338.326 79.445 C 338.058 79.611,337.987 79.544,338.151 79.279 C 338.491 78.729,336.158 77.455,335.526 77.845 C 335.231 78.028,335.189 77.941,335.404 77.594 C 335.644 77.206,335.547 77.135,335.045 77.327 C 334.582 77.505,334.452 77.440,334.645 77.127 C 334.838 76.815,334.707 76.750,334.245 76.927 C 333.857 77.076,333.659 77.028,333.790 76.815 C 334.099 76.317,332.509 75.486,331.930 75.843 C 331.631 76.028,331.588 75.943,331.804 75.594 C 332.044 75.206,331.947 75.135,331.445 75.327 C 331.054 75.477,330.859 75.428,330.992 75.212 C 331.300 74.714,328.907 73.487,328.326 73.845 C 328.058 74.011,327.987 73.944,328.151 73.679 C 328.491 73.129,326.158 71.855,325.526 72.245 C 325.231 72.428,325.189 72.341,325.404 71.994 C 325.644 71.606,325.547 71.535,325.045 71.727 C 324.582 71.905,324.452 71.840,324.645 71.527 C 324.838 71.215,324.707 71.150,324.245 71.327 C 323.854 71.477,323.659 71.428,323.792 71.212 C 324.100 70.714,321.707 69.487,321.126 69.845 C 320.858 70.011,320.787 69.944,320.951 69.679 C 321.291 69.129,318.958 67.855,318.326 68.245 C 318.031 68.428,317.989 68.341,318.204 67.994 C 318.444 67.606,318.347 67.535,317.845 67.727 C 317.457 67.876,317.259 67.828,317.390 67.615 C 317.699 67.117,316.109 66.286,315.530 66.643 C 315.231 66.828,315.188 66.743,315.404 66.394 C 315.644 66.006,315.547 65.935,315.045 66.127 C 314.582 66.305,314.452 66.240,314.645 65.927 C 314.838 65.615,314.707 65.550,314.245 65.727 C 313.854 65.877,313.659 65.828,313.792 65.612 C 314.100 65.114,311.707 63.887,311.126 64.245 C 310.831 64.428,310.789 64.341,311.004 63.994 C 311.244 63.606,311.147 63.535,310.645 63.727 C 310.254 63.877,310.059 63.828,310.192 63.612 C 310.500 63.114,308.107 61.887,307.526 62.245 C 307.258 62.411,307.187 62.344,307.351 62.079 C 307.691 61.529,305.358 60.255,304.726 60.645 C 304.457 60.812,304.387 60.744,304.552 60.477 C 304.894 59.925,301.762 58.253,301.124 58.647 C 300.831 58.828,300.790 58.741,301.004 58.394 C 301.244 58.006,301.147 57.935,300.645 58.127 C 300.254 58.277,300.059 58.228,300.192 58.012 C 300.500 57.514,298.107 56.287,297.526 56.645 C 297.231 56.828,297.189 56.741,297.404 56.394 C 297.644 56.006,297.547 55.935,297.045 56.127 C 296.654 56.277,296.459 56.228,296.592 56.012 C 296.900 55.514,294.507 54.287,293.926 54.645 C 293.658 54.811,293.587 54.744,293.751 54.479 C 294.091 53.929,291.758 52.655,291.126 53.045 C 290.831 53.228,290.789 53.141,291.004 52.794 C 291.244 52.406,291.147 52.335,290.645 52.527 C 290.182 52.705,290.052 52.640,290.245 52.327 C 290.438 52.015,290.307 51.950,289.845 52.127 C 289.457 52.276,289.259 52.228,289.390 52.015 C 289.699 51.517,288.109 50.686,287.530 51.043 C 287.231 51.228,287.188 51.143,287.404 50.794 C 287.644 50.406,287.547 50.335,287.045 50.527 C 286.657 50.676,286.459 50.628,286.590 50.415 C 286.899 49.917,285.309 49.086,284.730 49.443 C 284.431 49.628,284.388 49.543,284.604 49.194 C 284.844 48.806,284.747 48.735,284.245 48.927 C 283.852 49.078,283.659 49.028,283.793 48.811 C 284.101 48.312,280.906 46.687,280.324 47.047 C 280.031 47.228,279.990 47.141,280.204 46.794 C 280.444 46.406,280.347 46.335,279.845 46.527 C 279.454 46.677,279.259 46.628,279.392 46.412 C 279.700 45.914,277.307 44.687,276.726 45.045 C 276.457 45.212,276.387 45.144,276.553 44.876 C 277.377 43.542,270.382 41.605,267.702 42.425 M265.100 81.528 C 265.038 87.618,264.987 82.520,264.987 70.200 C 264.987 57.880,265.038 52.898,265.100 59.128 C 265.162 65.359,265.162 75.439,265.100 81.528 M346.700 276.700 C 346.643 301.285,346.597 281.170,346.597 232.000 C 346.597 182.830,346.643 162.715,346.700 187.300 C 346.757 211.885,346.757 252.115,346.700 276.700 M288.195 254.800 C 288.195 292.310,288.242 307.655,288.300 288.900 C 288.357 270.145,288.357 239.455,288.300 220.700 C 288.242 201.945,288.195 217.290,288.195 254.800 M126.700 417.882 C 127.195 417.978,128.005 417.978,128.500 417.882 C 128.995 417.787,128.590 417.709,127.600 417.709 C 126.610 417.709,126.205 417.787,126.700 417.882 " stroke="none" fill="#3ca4dc" fill-rule="evenodd"></path><path id="path2" d="M264.987 70.200 C 264.987 82.520,265.038 87.618,265.100 81.528 C 265.162 75.439,265.162 65.359,265.100 59.128 C 265.038 52.898,264.987 57.880,264.987 70.200 M196.992 94.400 C 196.992 114.530,197.040 122.765,197.100 112.700 C 197.159 102.635,197.159 86.165,197.100 76.100 C 197.040 66.035,196.992 74.270,196.992 94.400 M2.197 225.400 C 2.197 287.660,2.243 313.070,2.300 281.868 C 2.357 250.665,2.357 199.725,2.300 168.668 C 2.243 137.610,2.197 163.140,2.197 225.400 M52.196 226.000 C 52.196 274.070,52.243 293.735,52.300 269.700 C 52.357 245.665,52.357 206.335,52.300 182.300 C 52.243 158.265,52.196 177.930,52.196 226.000 M346.597 232.000 C 346.597 281.170,346.643 301.285,346.700 276.700 C 346.757 252.115,346.757 211.885,346.700 187.300 C 346.643 162.715,346.597 182.830,346.597 232.000 " stroke="none" fill="#50d88c" fill-rule="evenodd"></path><path id="path3" d="M264.987 70.200 C 264.987 82.520,265.038 87.618,265.100 81.528 C 265.162 75.439,265.162 65.359,265.100 59.128 C 265.038 52.898,264.987 57.880,264.987 70.200 M196.992 94.400 C 196.992 114.530,197.040 122.765,197.100 112.700 C 197.159 102.635,197.159 86.165,197.100 76.100 C 197.040 66.035,196.992 74.270,196.992 94.400 M2.197 225.400 C 2.197 287.660,2.243 313.070,2.300 281.868 C 2.357 250.665,2.357 199.725,2.300 168.668 C 2.243 137.610,2.197 163.140,2.197 225.400 M52.196 226.000 C 52.196 274.070,52.243 293.735,52.300 269.700 C 52.357 245.665,52.357 206.335,52.300 182.300 C 52.243 158.265,52.196 177.930,52.196 226.000 M346.597 232.000 C 346.597 281.170,346.643 301.285,346.700 276.700 C 346.757 252.115,346.757 211.885,346.700 187.300 C 346.643 162.715,346.597 182.830,346.597 232.000 " stroke="none" fill="#50d88c" fill-rule="evenodd"></path><path id="path4" d="M264.987 70.200 C 264.987 82.520,265.038 87.618,265.100 81.528 C 265.162 75.439,265.162 65.359,265.100 59.128 C 265.038 52.898,264.987 57.880,264.987 70.200 M196.992 94.400 C 196.992 114.530,197.040 122.765,197.100 112.700 C 197.159 102.635,197.159 86.165,197.100 76.100 C 197.040 66.035,196.992 74.270,196.992 94.400 M2.197 225.400 C 2.197 287.660,2.243 313.070,2.300 281.868 C 2.357 250.665,2.357 199.725,2.300 168.668 C 2.243 137.610,2.197 163.140,2.197 225.400 M52.196 226.000 C 52.196 274.070,52.243 293.735,52.300 269.700 C 52.357 245.665,52.357 206.335,52.300 182.300 C 52.243 158.265,52.196 177.930,52.196 226.000 M346.597 232.000 C 346.597 281.170,346.643 301.285,346.700 276.700 C 346.757 252.115,346.757 211.885,346.700 187.300 C 346.643 162.715,346.597 182.830,346.597 232.000 " stroke="none" fill="#50d88c" fill-rule="evenodd"></path></g></svg>